<mxfile host="app.diagrams.net" modified="2024-07-23T10:55:00.778Z" agent="Mozilla/5.0 (Windows NT 10.0; Win64; x64) AppleWebKit/537.36 (KHTML, like Gecko) Chrome/126.0.0.0 Safari/537.36" etag="WbVdJqlHoAP1SOXby9G1" version="24.7.3" type="github">
  <diagram id="C5RBs43oDa-KdzZeNtuy" name="Page-1">
    <mxGraphModel dx="2352" dy="2313" grid="1" gridSize="10" guides="1" tooltips="1" connect="1" arrows="1" fold="1" page="1" pageScale="1" pageWidth="827" pageHeight="1169" math="0" shadow="0">
      <root>
        <mxCell id="WIyWlLk6GJQsqaUBKTNV-0" />
        <mxCell id="WIyWlLk6GJQsqaUBKTNV-1" parent="WIyWlLk6GJQsqaUBKTNV-0" />
        <mxCell id="8Fg7yttchRCWMxdPPxp7-27" value="&lt;h3 style=&quot;font-size: 18px;&quot;&gt;&lt;font style=&quot;font-size: 18px;&quot; face=&quot;Phetsarath OT&quot;&gt;ເລີ່ມ&lt;/font&gt;&lt;/h3&gt;" style="strokeWidth=2;html=1;shape=mxgraph.flowchart.terminator;whiteSpace=wrap;fontSize=18;fontStyle=1" vertex="1" parent="WIyWlLk6GJQsqaUBKTNV-1">
          <mxGeometry x="282" y="80" width="100" height="60" as="geometry" />
        </mxCell>
        <mxCell id="8Fg7yttchRCWMxdPPxp7-28" value="&lt;h3 style=&quot;font-size: 18px;&quot;&gt;&lt;span style=&quot;font-size: 18px;&quot; data-lucid-content=&quot;{&amp;quot;t&amp;quot;:&amp;quot;ປ້ອນຂໍ້ມູນຜູ້ໃຊ້&amp;quot;,&amp;quot;m&amp;quot;:[{&amp;quot;s&amp;quot;:0,&amp;quot;n&amp;quot;:&amp;quot;a&amp;quot;,&amp;quot;v&amp;quot;:&amp;quot;left&amp;quot;},{&amp;quot;s&amp;quot;:0,&amp;quot;n&amp;quot;:&amp;quot;fsp&amp;quot;,&amp;quot;v&amp;quot;:&amp;quot;ss_presetShapeStyle1_textStyle&amp;quot;,&amp;quot;e&amp;quot;:16},{&amp;quot;s&amp;quot;:0,&amp;quot;n&amp;quot;:&amp;quot;fsp2&amp;quot;,&amp;quot;v&amp;quot;:&amp;quot;ss_presetShapeStyle1_textStyle&amp;quot;,&amp;quot;e&amp;quot;:16},{&amp;quot;s&amp;quot;:0,&amp;quot;n&amp;quot;:&amp;quot;s&amp;quot;,&amp;quot;v&amp;quot;:53.333333333333336,&amp;quot;e&amp;quot;:16}]}&quot; data-lucid-type=&quot;application/vnd.lucid.text&quot;&gt;&lt;font style=&quot;font-size: 18px;&quot; face=&quot;phetsarath ot&quot;&gt;ປ້ອນຂໍ້ມູນຜູ້ໃຊ້&lt;/font&gt;&lt;/span&gt;&lt;br style=&quot;font-size: 18px;&quot;&gt;&lt;/h3&gt;" style="html=1;strokeWidth=2;shape=manualInput;whiteSpace=wrap;rounded=1;size=26;arcSize=11;fontSize=18;fontStyle=1" vertex="1" parent="WIyWlLk6GJQsqaUBKTNV-1">
          <mxGeometry x="222" y="280" width="220" height="80" as="geometry" />
        </mxCell>
        <mxCell id="8Fg7yttchRCWMxdPPxp7-29" style="edgeStyle=orthogonalEdgeStyle;rounded=0;orthogonalLoop=1;jettySize=auto;html=1;exitX=0.5;exitY=1;exitDx=0;exitDy=0;exitPerimeter=0;entryX=0.5;entryY=0;entryDx=0;entryDy=0;strokeWidth=2;fontSize=18;fontStyle=1" edge="1" parent="WIyWlLk6GJQsqaUBKTNV-1" source="8Fg7yttchRCWMxdPPxp7-31" target="8Fg7yttchRCWMxdPPxp7-32">
          <mxGeometry relative="1" as="geometry" />
        </mxCell>
        <mxCell id="8Fg7yttchRCWMxdPPxp7-31" value="&lt;h3 style=&quot;font-size: 18px;&quot;&gt;&lt;span style=&quot;font-size: 18px;&quot; data-lucid-content=&quot;{&amp;quot;t&amp;quot;:&amp;quot;ກວດສອບຂໍ້ຜູ້ໃຊ້ວ່າຄົບແລ້ວບໍ&amp;quot;,&amp;quot;m&amp;quot;:[{&amp;quot;s&amp;quot;:0,&amp;quot;n&amp;quot;:&amp;quot;fsp&amp;quot;,&amp;quot;v&amp;quot;:&amp;quot;ss_presetShapeStyle1_textStyle&amp;quot;,&amp;quot;e&amp;quot;:27},{&amp;quot;s&amp;quot;:0,&amp;quot;n&amp;quot;:&amp;quot;fsp2&amp;quot;,&amp;quot;v&amp;quot;:&amp;quot;ss_presetShapeStyle1_textStyle&amp;quot;,&amp;quot;e&amp;quot;:27},{&amp;quot;s&amp;quot;:0,&amp;quot;n&amp;quot;:&amp;quot;s&amp;quot;,&amp;quot;v&amp;quot;:53.333333333333336,&amp;quot;e&amp;quot;:27}]}&quot; data-lucid-type=&quot;application/vnd.lucid.text&quot;&gt;&lt;font style=&quot;font-size: 18px;&quot; face=&quot;phetsarath ot&quot;&gt;ກວດສອບຂໍ້ມູນຜູ້ໃຊ້ວ່າຄົບແລ້ວບໍ&lt;/font&gt;&lt;/span&gt;&lt;br style=&quot;font-size: 18px;&quot;&gt;&lt;/h3&gt;" style="strokeWidth=2;html=1;shape=mxgraph.flowchart.decision;whiteSpace=wrap;fontSize=18;fontStyle=1" vertex="1" parent="WIyWlLk6GJQsqaUBKTNV-1">
          <mxGeometry x="207" y="420" width="250" height="100" as="geometry" />
        </mxCell>
        <mxCell id="8Fg7yttchRCWMxdPPxp7-32" value="&lt;h3 style=&quot;font-size: 18px;&quot;&gt;&lt;span style=&quot;font-size: 18px;&quot; data-lucid-content=&quot;{&amp;quot;t&amp;quot;:&amp;quot;ບັນທຶກຂໍ້ມູນ&amp;quot;,&amp;quot;m&amp;quot;:[{&amp;quot;s&amp;quot;:0,&amp;quot;n&amp;quot;:&amp;quot;s&amp;quot;,&amp;quot;v&amp;quot;:53.333333333333336,&amp;quot;e&amp;quot;:12},{&amp;quot;s&amp;quot;:0,&amp;quot;n&amp;quot;:&amp;quot;fsp&amp;quot;,&amp;quot;v&amp;quot;:&amp;quot;ss_presetShapeStyle1_textStyle&amp;quot;,&amp;quot;e&amp;quot;:12},{&amp;quot;s&amp;quot;:0,&amp;quot;n&amp;quot;:&amp;quot;fsp2&amp;quot;,&amp;quot;v&amp;quot;:&amp;quot;ss_presetShapeStyle1_textStyle&amp;quot;,&amp;quot;e&amp;quot;:12}]}&quot; data-lucid-type=&quot;application/vnd.lucid.text&quot;&gt;&lt;font style=&quot;font-size: 18px;&quot; face=&quot;phetsarath ot&quot;&gt;ບັນທຶກຂໍ້ມູນ&lt;/font&gt;&lt;/span&gt;&lt;br style=&quot;font-size: 18px;&quot;&gt;&lt;/h3&gt;" style="rounded=1;whiteSpace=wrap;html=1;absoluteArcSize=1;arcSize=14;strokeWidth=2;fontSize=18;fontStyle=1" vertex="1" parent="WIyWlLk6GJQsqaUBKTNV-1">
          <mxGeometry x="224.5" y="575" width="215" height="65" as="geometry" />
        </mxCell>
        <mxCell id="8Fg7yttchRCWMxdPPxp7-33" value="&lt;h3 style=&quot;font-size: 18px;&quot;&gt;&lt;font style=&quot;font-size: 18px;&quot; face=&quot;Phetsarath OT&quot;&gt;&lt;span style=&quot;font-size: 18px;&quot;&gt;ສິ້ນສຸດ&lt;/span&gt;&lt;/font&gt;&lt;/h3&gt;" style="strokeWidth=2;html=1;shape=mxgraph.flowchart.terminator;whiteSpace=wrap;fontSize=18;fontStyle=1" vertex="1" parent="WIyWlLk6GJQsqaUBKTNV-1">
          <mxGeometry x="282" y="840" width="100" height="60" as="geometry" />
        </mxCell>
        <mxCell id="8Fg7yttchRCWMxdPPxp7-34" style="rounded=0;orthogonalLoop=1;jettySize=auto;html=1;entryX=0.5;entryY=0;entryDx=0;entryDy=0;entryPerimeter=0;strokeWidth=2;fontSize=18;fontStyle=1" edge="1" parent="WIyWlLk6GJQsqaUBKTNV-1" source="8Fg7yttchRCWMxdPPxp7-27" target="8Fg7yttchRCWMxdPPxp7-50">
          <mxGeometry relative="1" as="geometry">
            <mxPoint x="331" y="180" as="targetPoint" />
          </mxGeometry>
        </mxCell>
        <mxCell id="8Fg7yttchRCWMxdPPxp7-35" style="edgeStyle=orthogonalEdgeStyle;rounded=0;orthogonalLoop=1;jettySize=auto;html=1;entryX=0.5;entryY=0;entryDx=0;entryDy=0;entryPerimeter=0;strokeWidth=2;fontSize=18;fontStyle=1" edge="1" parent="WIyWlLk6GJQsqaUBKTNV-1" source="8Fg7yttchRCWMxdPPxp7-28" target="8Fg7yttchRCWMxdPPxp7-31">
          <mxGeometry relative="1" as="geometry" />
        </mxCell>
        <mxCell id="8Fg7yttchRCWMxdPPxp7-36" value="&lt;h3 style=&quot;font-size: 18px;&quot;&gt;&lt;font style=&quot;font-size: 18px;&quot; face=&quot;Phetsarath OT&quot;&gt;ບໍ່ຖືກ&lt;/font&gt;&lt;/h3&gt;" style="text;html=1;align=center;verticalAlign=middle;resizable=0;points=[];autosize=1;strokeColor=none;fillColor=none;strokeWidth=2;fontSize=18;fontStyle=1" vertex="1" parent="WIyWlLk6GJQsqaUBKTNV-1">
          <mxGeometry x="452" y="405" width="60" height="70" as="geometry" />
        </mxCell>
        <mxCell id="8Fg7yttchRCWMxdPPxp7-37" value="&lt;h3 style=&quot;font-size: 18px;&quot;&gt;&lt;font style=&quot;font-size: 18px;&quot; face=&quot;Phetsarath OT&quot;&gt;ຖືກ&lt;/font&gt;&lt;/h3&gt;" style="text;html=1;align=center;verticalAlign=middle;resizable=0;points=[];autosize=1;strokeColor=none;fillColor=none;strokeWidth=2;fontSize=18;fontStyle=1" vertex="1" parent="WIyWlLk6GJQsqaUBKTNV-1">
          <mxGeometry x="325" y="510" width="50" height="70" as="geometry" />
        </mxCell>
        <mxCell id="8Fg7yttchRCWMxdPPxp7-41" style="edgeStyle=orthogonalEdgeStyle;rounded=0;orthogonalLoop=1;jettySize=auto;html=1;exitX=0.5;exitY=1;exitDx=0;exitDy=0;entryX=0.5;entryY=0;entryDx=0;entryDy=0;entryPerimeter=0;strokeWidth=2;fontSize=18;fontStyle=1" edge="1" parent="WIyWlLk6GJQsqaUBKTNV-1" source="8Fg7yttchRCWMxdPPxp7-32" target="8Fg7yttchRCWMxdPPxp7-54">
          <mxGeometry relative="1" as="geometry">
            <mxPoint x="332" y="710" as="targetPoint" />
          </mxGeometry>
        </mxCell>
        <mxCell id="8Fg7yttchRCWMxdPPxp7-47" style="edgeStyle=orthogonalEdgeStyle;rounded=0;orthogonalLoop=1;jettySize=auto;html=1;exitX=1;exitY=0.5;exitDx=0;exitDy=0;entryX=1;entryY=0.5;entryDx=0;entryDy=0;entryPerimeter=0;exitPerimeter=0;strokeWidth=2;fontSize=18;fontStyle=1" edge="1" parent="WIyWlLk6GJQsqaUBKTNV-1" source="8Fg7yttchRCWMxdPPxp7-31" target="8Fg7yttchRCWMxdPPxp7-50">
          <mxGeometry relative="1" as="geometry">
            <mxPoint x="370" y="180" as="targetPoint" />
            <Array as="points">
              <mxPoint x="520" y="470" />
              <mxPoint x="520" y="200" />
            </Array>
            <mxPoint x="582" y="300" as="sourcePoint" />
          </mxGeometry>
        </mxCell>
        <mxCell id="8Fg7yttchRCWMxdPPxp7-50" value="" style="strokeWidth=2;html=1;shape=mxgraph.flowchart.start_2;whiteSpace=wrap;fontSize=18;fontStyle=1" vertex="1" parent="WIyWlLk6GJQsqaUBKTNV-1">
          <mxGeometry x="312" y="180" width="40" height="40" as="geometry" />
        </mxCell>
        <mxCell id="8Fg7yttchRCWMxdPPxp7-54" value="&lt;font face=&quot;phetsarath ot&quot; style=&quot;font-size: 18px;&quot;&gt;&lt;span style=&quot;font-size: 18px;&quot;&gt;ສະແດງຂໍ້ມູນ&lt;/span&gt;&lt;/font&gt;" style="strokeWidth=2;html=1;shape=mxgraph.flowchart.display;whiteSpace=wrap;fontSize=18;fontStyle=1" vertex="1" parent="WIyWlLk6GJQsqaUBKTNV-1">
          <mxGeometry x="247" y="710" width="170" height="70" as="geometry" />
        </mxCell>
        <mxCell id="8Fg7yttchRCWMxdPPxp7-56" style="edgeStyle=none;curved=1;rounded=0;orthogonalLoop=1;jettySize=auto;html=1;exitX=0.5;exitY=1;exitDx=0;exitDy=0;exitPerimeter=0;entryX=0.5;entryY=0;entryDx=0;entryDy=0;entryPerimeter=0;fontSize=18;startSize=8;endSize=8;strokeWidth=2;fontStyle=1" edge="1" parent="WIyWlLk6GJQsqaUBKTNV-1" source="8Fg7yttchRCWMxdPPxp7-54" target="8Fg7yttchRCWMxdPPxp7-33">
          <mxGeometry relative="1" as="geometry" />
        </mxCell>
        <mxCell id="8Fg7yttchRCWMxdPPxp7-57" style="edgeStyle=none;curved=1;rounded=0;orthogonalLoop=1;jettySize=auto;html=1;exitX=0.5;exitY=1;exitDx=0;exitDy=0;exitPerimeter=0;entryX=0.499;entryY=0.137;entryDx=0;entryDy=0;entryPerimeter=0;fontSize=18;startSize=8;endSize=8;strokeWidth=2;fontStyle=1" edge="1" parent="WIyWlLk6GJQsqaUBKTNV-1" source="8Fg7yttchRCWMxdPPxp7-50" target="8Fg7yttchRCWMxdPPxp7-28">
          <mxGeometry relative="1" as="geometry" />
        </mxCell>
        <mxCell id="8Fg7yttchRCWMxdPPxp7-58" value="&lt;h3 style=&quot;font-size: 18px;&quot;&gt;&lt;font style=&quot;font-size: 18px;&quot; face=&quot;Phetsarath OT&quot;&gt;ເລີ່ມ&lt;/font&gt;&lt;/h3&gt;" style="strokeWidth=2;html=1;shape=mxgraph.flowchart.terminator;whiteSpace=wrap;fontSize=18;fontStyle=1" vertex="1" parent="WIyWlLk6GJQsqaUBKTNV-1">
          <mxGeometry x="895" y="70" width="100" height="60" as="geometry" />
        </mxCell>
        <mxCell id="8Fg7yttchRCWMxdPPxp7-59" value="&lt;h3 style=&quot;font-size: 18px;&quot;&gt;&lt;span style=&quot;font-size: 18px;&quot; data-lucid-content=&quot;{&amp;quot;t&amp;quot;:&amp;quot;ປ້ອນຂໍ້ມູນ ເບີໂທ, ລະຫັດຜ່ານ&amp;quot;,&amp;quot;m&amp;quot;:[{&amp;quot;s&amp;quot;:0,&amp;quot;n&amp;quot;:&amp;quot;a&amp;quot;,&amp;quot;v&amp;quot;:&amp;quot;left&amp;quot;},{&amp;quot;s&amp;quot;:0,&amp;quot;n&amp;quot;:&amp;quot;fsp&amp;quot;,&amp;quot;v&amp;quot;:&amp;quot;ss_presetShapeStyle1_textStyle&amp;quot;,&amp;quot;e&amp;quot;:27},{&amp;quot;s&amp;quot;:0,&amp;quot;n&amp;quot;:&amp;quot;fsp2&amp;quot;,&amp;quot;v&amp;quot;:&amp;quot;ss_presetShapeStyle1_textStyle&amp;quot;,&amp;quot;e&amp;quot;:27},{&amp;quot;s&amp;quot;:0,&amp;quot;n&amp;quot;:&amp;quot;s&amp;quot;,&amp;quot;v&amp;quot;:53.333333333333336,&amp;quot;e&amp;quot;:27}]}&quot; data-lucid-type=&quot;application/vnd.lucid.text&quot;&gt;&lt;span style=&quot;font-size: 18px;&quot;&gt;&lt;font style=&quot;font-size: 18px;&quot; face=&quot;phetsarath ot&quot;&gt;ປ້ອນຂໍ້ມູນ ເບີໂທ, ລະຫັດຜ່ານ&lt;/font&gt;&lt;/span&gt;&lt;/span&gt;&lt;br style=&quot;font-size: 18px;&quot;&gt;&lt;/h3&gt;" style="html=1;strokeWidth=2;shape=manualInput;whiteSpace=wrap;rounded=1;size=26;arcSize=11;fontSize=18;fontStyle=1" vertex="1" parent="WIyWlLk6GJQsqaUBKTNV-1">
          <mxGeometry x="835" y="270" width="220" height="80" as="geometry" />
        </mxCell>
        <mxCell id="8Fg7yttchRCWMxdPPxp7-60" style="edgeStyle=orthogonalEdgeStyle;rounded=0;orthogonalLoop=1;jettySize=auto;html=1;exitX=0.5;exitY=1;exitDx=0;exitDy=0;exitPerimeter=0;entryX=0.5;entryY=0;entryDx=0;entryDy=0;strokeWidth=2;entryPerimeter=0;fontSize=18;fontStyle=1" edge="1" parent="WIyWlLk6GJQsqaUBKTNV-1" source="8Fg7yttchRCWMxdPPxp7-61" target="8Fg7yttchRCWMxdPPxp7-71">
          <mxGeometry relative="1" as="geometry">
            <mxPoint x="945.0000000000002" y="565" as="targetPoint" />
          </mxGeometry>
        </mxCell>
        <mxCell id="8Fg7yttchRCWMxdPPxp7-61" value="&lt;h3 style=&quot;font-size: 18px;&quot;&gt;&lt;span style=&quot;font-size: 18px;&quot; data-lucid-content=&quot;{&amp;quot;t&amp;quot;:&amp;quot;ກວດສອບເບີໂທ ແລະ ລະຫັດຜ່ານວ່າຖືກຕ້ອງແລ້ວບໍ&amp;quot;,&amp;quot;m&amp;quot;:[{&amp;quot;s&amp;quot;:0,&amp;quot;n&amp;quot;:&amp;quot;fsp&amp;quot;,&amp;quot;v&amp;quot;:&amp;quot;ss_presetShapeStyle1_textStyle&amp;quot;,&amp;quot;e&amp;quot;:41},{&amp;quot;s&amp;quot;:0,&amp;quot;n&amp;quot;:&amp;quot;fsp2&amp;quot;,&amp;quot;v&amp;quot;:&amp;quot;ss_presetShapeStyle1_textStyle&amp;quot;,&amp;quot;e&amp;quot;:41},{&amp;quot;s&amp;quot;:0,&amp;quot;n&amp;quot;:&amp;quot;s&amp;quot;,&amp;quot;v&amp;quot;:44.44444444444444,&amp;quot;e&amp;quot;:41}]}&quot; data-lucid-type=&quot;application/vnd.lucid.text&quot;&gt;&lt;span style=&quot;font-size: 18px;&quot;&gt;&lt;font style=&quot;font-size: 18px;&quot; face=&quot;phetsarath ot&quot;&gt;ກວດສອບເບີໂທ ແລະ ລະຫັດຜ່ານວ່າຖືກຕ້ອງແລ້ວບໍ&lt;/font&gt;&lt;/span&gt;&lt;/span&gt;&lt;br style=&quot;font-size: 18px;&quot;&gt;&lt;/h3&gt;" style="strokeWidth=2;html=1;shape=mxgraph.flowchart.decision;whiteSpace=wrap;fontSize=18;fontStyle=1" vertex="1" parent="WIyWlLk6GJQsqaUBKTNV-1">
          <mxGeometry x="740" y="407.5" width="410" height="100" as="geometry" />
        </mxCell>
        <mxCell id="8Fg7yttchRCWMxdPPxp7-63" value="&lt;h3 style=&quot;font-size: 18px;&quot;&gt;&lt;font style=&quot;font-size: 18px;&quot; face=&quot;Phetsarath OT&quot;&gt;&lt;span style=&quot;font-size: 18px;&quot;&gt;ສິ້ນສຸດ&lt;/span&gt;&lt;/font&gt;&lt;/h3&gt;" style="strokeWidth=2;html=1;shape=mxgraph.flowchart.terminator;whiteSpace=wrap;fontSize=18;fontStyle=1" vertex="1" parent="WIyWlLk6GJQsqaUBKTNV-1">
          <mxGeometry x="895" y="700" width="100" height="60" as="geometry" />
        </mxCell>
        <mxCell id="8Fg7yttchRCWMxdPPxp7-64" style="rounded=0;orthogonalLoop=1;jettySize=auto;html=1;entryX=0.5;entryY=0;entryDx=0;entryDy=0;entryPerimeter=0;strokeWidth=2;fontSize=18;fontStyle=1" edge="1" parent="WIyWlLk6GJQsqaUBKTNV-1" source="8Fg7yttchRCWMxdPPxp7-58" target="8Fg7yttchRCWMxdPPxp7-70">
          <mxGeometry relative="1" as="geometry">
            <mxPoint x="944" y="170" as="targetPoint" />
          </mxGeometry>
        </mxCell>
        <mxCell id="8Fg7yttchRCWMxdPPxp7-65" style="edgeStyle=orthogonalEdgeStyle;rounded=0;orthogonalLoop=1;jettySize=auto;html=1;entryX=0.5;entryY=0;entryDx=0;entryDy=0;entryPerimeter=0;strokeWidth=2;fontSize=18;fontStyle=1" edge="1" parent="WIyWlLk6GJQsqaUBKTNV-1" source="8Fg7yttchRCWMxdPPxp7-59" target="8Fg7yttchRCWMxdPPxp7-61">
          <mxGeometry relative="1" as="geometry" />
        </mxCell>
        <mxCell id="8Fg7yttchRCWMxdPPxp7-66" value="&lt;h3 style=&quot;font-size: 18px;&quot;&gt;&lt;font style=&quot;font-size: 18px;&quot; face=&quot;Phetsarath OT&quot;&gt;ບໍ່ຖືກ&lt;/font&gt;&lt;/h3&gt;" style="text;html=1;align=center;verticalAlign=middle;resizable=0;points=[];autosize=1;strokeColor=none;fillColor=none;strokeWidth=2;fontSize=18;fontStyle=1" vertex="1" parent="WIyWlLk6GJQsqaUBKTNV-1">
          <mxGeometry x="1110" y="380" width="60" height="70" as="geometry" />
        </mxCell>
        <mxCell id="8Fg7yttchRCWMxdPPxp7-67" value="&lt;h3 style=&quot;font-size: 18px;&quot;&gt;&lt;font style=&quot;font-size: 18px;&quot; face=&quot;Phetsarath OT&quot;&gt;ຖືກ&lt;/font&gt;&lt;/h3&gt;" style="text;html=1;align=center;verticalAlign=middle;resizable=0;points=[];autosize=1;strokeColor=none;fillColor=none;strokeWidth=2;fontSize=18;fontStyle=1" vertex="1" parent="WIyWlLk6GJQsqaUBKTNV-1">
          <mxGeometry x="935" y="495" width="50" height="70" as="geometry" />
        </mxCell>
        <mxCell id="8Fg7yttchRCWMxdPPxp7-69" style="edgeStyle=orthogonalEdgeStyle;rounded=0;orthogonalLoop=1;jettySize=auto;html=1;exitX=1;exitY=0.5;exitDx=0;exitDy=0;entryX=1;entryY=0.5;entryDx=0;entryDy=0;entryPerimeter=0;exitPerimeter=0;strokeWidth=2;fontSize=18;fontStyle=1" edge="1" parent="WIyWlLk6GJQsqaUBKTNV-1" source="8Fg7yttchRCWMxdPPxp7-61" target="8Fg7yttchRCWMxdPPxp7-70">
          <mxGeometry relative="1" as="geometry">
            <mxPoint x="983" y="170" as="targetPoint" />
            <Array as="points">
              <mxPoint x="1160" y="457" />
              <mxPoint x="1160" y="190" />
            </Array>
            <mxPoint x="1195" y="290" as="sourcePoint" />
          </mxGeometry>
        </mxCell>
        <mxCell id="8Fg7yttchRCWMxdPPxp7-70" value="" style="strokeWidth=2;html=1;shape=mxgraph.flowchart.start_2;whiteSpace=wrap;fontSize=18;fontStyle=1" vertex="1" parent="WIyWlLk6GJQsqaUBKTNV-1">
          <mxGeometry x="925" y="170" width="40" height="40" as="geometry" />
        </mxCell>
        <mxCell id="8Fg7yttchRCWMxdPPxp7-71" value="&lt;font face=&quot;phetsarath ot&quot; style=&quot;font-size: 18px;&quot;&gt;&lt;span style=&quot;font-size: 18px;&quot;&gt;ສະແດງຂໍ້ມູນ&lt;/span&gt;&lt;/font&gt;" style="strokeWidth=2;html=1;shape=mxgraph.flowchart.display;whiteSpace=wrap;fontSize=18;fontStyle=1" vertex="1" parent="WIyWlLk6GJQsqaUBKTNV-1">
          <mxGeometry x="860" y="575" width="170" height="70" as="geometry" />
        </mxCell>
        <mxCell id="8Fg7yttchRCWMxdPPxp7-72" style="edgeStyle=none;curved=1;rounded=0;orthogonalLoop=1;jettySize=auto;html=1;exitX=0.5;exitY=1;exitDx=0;exitDy=0;exitPerimeter=0;entryX=0.5;entryY=0;entryDx=0;entryDy=0;entryPerimeter=0;fontSize=18;startSize=8;endSize=8;strokeWidth=2;fontStyle=1" edge="1" parent="WIyWlLk6GJQsqaUBKTNV-1" source="8Fg7yttchRCWMxdPPxp7-71" target="8Fg7yttchRCWMxdPPxp7-63">
          <mxGeometry relative="1" as="geometry" />
        </mxCell>
        <mxCell id="8Fg7yttchRCWMxdPPxp7-73" style="edgeStyle=none;curved=1;rounded=0;orthogonalLoop=1;jettySize=auto;html=1;exitX=0.5;exitY=1;exitDx=0;exitDy=0;exitPerimeter=0;entryX=0.499;entryY=0.137;entryDx=0;entryDy=0;entryPerimeter=0;fontSize=18;startSize=8;endSize=8;strokeWidth=2;fontStyle=1" edge="1" parent="WIyWlLk6GJQsqaUBKTNV-1" source="8Fg7yttchRCWMxdPPxp7-70" target="8Fg7yttchRCWMxdPPxp7-59">
          <mxGeometry relative="1" as="geometry" />
        </mxCell>
        <mxCell id="8Fg7yttchRCWMxdPPxp7-90" value="&lt;h3 style=&quot;font-size: 18px;&quot;&gt;&lt;font style=&quot;font-size: 18px;&quot; face=&quot;Phetsarath OT&quot;&gt;ເລີ່ມ&lt;/font&gt;&lt;/h3&gt;" style="strokeWidth=2;html=1;shape=mxgraph.flowchart.terminator;whiteSpace=wrap;fontSize=18;fontStyle=1" vertex="1" parent="WIyWlLk6GJQsqaUBKTNV-1">
          <mxGeometry x="1595" y="80" width="100" height="60" as="geometry" />
        </mxCell>
        <mxCell id="8Fg7yttchRCWMxdPPxp7-91" value="&lt;h3 style=&quot;font-size: 18px;&quot;&gt;&lt;span style=&quot;font-size: 18px;&quot; data-lucid-content=&quot;{&amp;quot;t&amp;quot;:&amp;quot;ປ້ອນຂໍ້ມູນຜູ້ໃຊ້&amp;quot;,&amp;quot;m&amp;quot;:[{&amp;quot;s&amp;quot;:0,&amp;quot;n&amp;quot;:&amp;quot;a&amp;quot;,&amp;quot;v&amp;quot;:&amp;quot;left&amp;quot;},{&amp;quot;s&amp;quot;:0,&amp;quot;n&amp;quot;:&amp;quot;fsp&amp;quot;,&amp;quot;v&amp;quot;:&amp;quot;ss_presetShapeStyle1_textStyle&amp;quot;,&amp;quot;e&amp;quot;:16},{&amp;quot;s&amp;quot;:0,&amp;quot;n&amp;quot;:&amp;quot;fsp2&amp;quot;,&amp;quot;v&amp;quot;:&amp;quot;ss_presetShapeStyle1_textStyle&amp;quot;,&amp;quot;e&amp;quot;:16},{&amp;quot;s&amp;quot;:0,&amp;quot;n&amp;quot;:&amp;quot;s&amp;quot;,&amp;quot;v&amp;quot;:53.333333333333336,&amp;quot;e&amp;quot;:16}]}&quot; data-lucid-type=&quot;application/vnd.lucid.text&quot;&gt;&lt;font style=&quot;font-size: 18px;&quot; face=&quot;phetsarath ot&quot;&gt;ປ້ອນຂໍ້ມູນຜູ້ໃຊ້&lt;/font&gt;&lt;/span&gt;&lt;br style=&quot;font-size: 18px;&quot;&gt;&lt;/h3&gt;" style="html=1;strokeWidth=2;shape=manualInput;whiteSpace=wrap;rounded=1;size=26;arcSize=11;fontSize=18;fontStyle=1" vertex="1" parent="WIyWlLk6GJQsqaUBKTNV-1">
          <mxGeometry x="1535" y="280" width="220" height="80" as="geometry" />
        </mxCell>
        <mxCell id="8Fg7yttchRCWMxdPPxp7-92" style="edgeStyle=orthogonalEdgeStyle;rounded=0;orthogonalLoop=1;jettySize=auto;html=1;exitX=0.5;exitY=1;exitDx=0;exitDy=0;exitPerimeter=0;entryX=0.5;entryY=0;entryDx=0;entryDy=0;strokeWidth=2;fontSize=18;fontStyle=1" edge="1" parent="WIyWlLk6GJQsqaUBKTNV-1" source="8Fg7yttchRCWMxdPPxp7-93" target="8Fg7yttchRCWMxdPPxp7-94">
          <mxGeometry relative="1" as="geometry" />
        </mxCell>
        <mxCell id="8Fg7yttchRCWMxdPPxp7-93" value="&lt;h3 style=&quot;font-size: 18px;&quot;&gt;&lt;span style=&quot;font-size: 18px;&quot; data-lucid-content=&quot;{&amp;quot;t&amp;quot;:&amp;quot;ກວດສອບຂໍ້ຜູ້ໃຊ້ວ່າຄົບແລ້ວບໍ&amp;quot;,&amp;quot;m&amp;quot;:[{&amp;quot;s&amp;quot;:0,&amp;quot;n&amp;quot;:&amp;quot;fsp&amp;quot;,&amp;quot;v&amp;quot;:&amp;quot;ss_presetShapeStyle1_textStyle&amp;quot;,&amp;quot;e&amp;quot;:27},{&amp;quot;s&amp;quot;:0,&amp;quot;n&amp;quot;:&amp;quot;fsp2&amp;quot;,&amp;quot;v&amp;quot;:&amp;quot;ss_presetShapeStyle1_textStyle&amp;quot;,&amp;quot;e&amp;quot;:27},{&amp;quot;s&amp;quot;:0,&amp;quot;n&amp;quot;:&amp;quot;s&amp;quot;,&amp;quot;v&amp;quot;:53.333333333333336,&amp;quot;e&amp;quot;:27}]}&quot; data-lucid-type=&quot;application/vnd.lucid.text&quot;&gt;&lt;font style=&quot;font-size: 18px;&quot; face=&quot;phetsarath ot&quot;&gt;ກວດສອບຂໍ້ມູນຜູ້ໃຊ້ວ່າຄົບແລ້ວບໍ&lt;/font&gt;&lt;/span&gt;&lt;br style=&quot;font-size: 18px;&quot;&gt;&lt;/h3&gt;" style="strokeWidth=2;html=1;shape=mxgraph.flowchart.decision;whiteSpace=wrap;fontSize=18;fontStyle=1" vertex="1" parent="WIyWlLk6GJQsqaUBKTNV-1">
          <mxGeometry x="1520" y="420" width="250" height="100" as="geometry" />
        </mxCell>
        <mxCell id="8Fg7yttchRCWMxdPPxp7-94" value="&lt;h3 style=&quot;font-size: 18px;&quot;&gt;&lt;span style=&quot;font-size: 18px;&quot; data-lucid-content=&quot;{&amp;quot;t&amp;quot;:&amp;quot;ບັນທຶກຂໍ້ມູນ&amp;quot;,&amp;quot;m&amp;quot;:[{&amp;quot;s&amp;quot;:0,&amp;quot;n&amp;quot;:&amp;quot;s&amp;quot;,&amp;quot;v&amp;quot;:53.333333333333336,&amp;quot;e&amp;quot;:12},{&amp;quot;s&amp;quot;:0,&amp;quot;n&amp;quot;:&amp;quot;fsp&amp;quot;,&amp;quot;v&amp;quot;:&amp;quot;ss_presetShapeStyle1_textStyle&amp;quot;,&amp;quot;e&amp;quot;:12},{&amp;quot;s&amp;quot;:0,&amp;quot;n&amp;quot;:&amp;quot;fsp2&amp;quot;,&amp;quot;v&amp;quot;:&amp;quot;ss_presetShapeStyle1_textStyle&amp;quot;,&amp;quot;e&amp;quot;:12}]}&quot; data-lucid-type=&quot;application/vnd.lucid.text&quot;&gt;&lt;font style=&quot;font-size: 18px;&quot; face=&quot;phetsarath ot&quot;&gt;ບັນທຶກຂໍ້ມູນ&lt;/font&gt;&lt;/span&gt;&lt;br style=&quot;font-size: 18px;&quot;&gt;&lt;/h3&gt;" style="rounded=1;whiteSpace=wrap;html=1;absoluteArcSize=1;arcSize=14;strokeWidth=2;fontSize=18;fontStyle=1" vertex="1" parent="WIyWlLk6GJQsqaUBKTNV-1">
          <mxGeometry x="1537.5" y="575" width="215" height="65" as="geometry" />
        </mxCell>
        <mxCell id="8Fg7yttchRCWMxdPPxp7-95" value="&lt;h3 style=&quot;font-size: 18px;&quot;&gt;&lt;font style=&quot;font-size: 18px;&quot; face=&quot;Phetsarath OT&quot;&gt;&lt;span style=&quot;font-size: 18px;&quot;&gt;ສິ້ນສຸດ&lt;/span&gt;&lt;/font&gt;&lt;/h3&gt;" style="strokeWidth=2;html=1;shape=mxgraph.flowchart.terminator;whiteSpace=wrap;fontSize=18;fontStyle=1" vertex="1" parent="WIyWlLk6GJQsqaUBKTNV-1">
          <mxGeometry x="1595" y="840" width="100" height="60" as="geometry" />
        </mxCell>
        <mxCell id="8Fg7yttchRCWMxdPPxp7-96" style="rounded=0;orthogonalLoop=1;jettySize=auto;html=1;entryX=0.5;entryY=0;entryDx=0;entryDy=0;entryPerimeter=0;strokeWidth=2;fontSize=18;fontStyle=1" edge="1" parent="WIyWlLk6GJQsqaUBKTNV-1" source="8Fg7yttchRCWMxdPPxp7-90" target="8Fg7yttchRCWMxdPPxp7-102">
          <mxGeometry relative="1" as="geometry">
            <mxPoint x="1644" y="180" as="targetPoint" />
          </mxGeometry>
        </mxCell>
        <mxCell id="8Fg7yttchRCWMxdPPxp7-97" style="edgeStyle=orthogonalEdgeStyle;rounded=0;orthogonalLoop=1;jettySize=auto;html=1;entryX=0.5;entryY=0;entryDx=0;entryDy=0;entryPerimeter=0;strokeWidth=2;fontSize=18;fontStyle=1" edge="1" parent="WIyWlLk6GJQsqaUBKTNV-1" source="8Fg7yttchRCWMxdPPxp7-91" target="8Fg7yttchRCWMxdPPxp7-93">
          <mxGeometry relative="1" as="geometry" />
        </mxCell>
        <mxCell id="8Fg7yttchRCWMxdPPxp7-98" value="&lt;h3 style=&quot;font-size: 18px;&quot;&gt;&lt;font style=&quot;font-size: 18px;&quot; face=&quot;Phetsarath OT&quot;&gt;ບໍ່ຖືກ&lt;/font&gt;&lt;/h3&gt;" style="text;html=1;align=center;verticalAlign=middle;resizable=0;points=[];autosize=1;strokeColor=none;fillColor=none;strokeWidth=2;fontSize=18;fontStyle=1" vertex="1" parent="WIyWlLk6GJQsqaUBKTNV-1">
          <mxGeometry x="1765" y="405" width="60" height="70" as="geometry" />
        </mxCell>
        <mxCell id="8Fg7yttchRCWMxdPPxp7-99" value="&lt;h3 style=&quot;font-size: 18px;&quot;&gt;&lt;font style=&quot;font-size: 18px;&quot; face=&quot;Phetsarath OT&quot;&gt;ຖືກ&lt;/font&gt;&lt;/h3&gt;" style="text;html=1;align=center;verticalAlign=middle;resizable=0;points=[];autosize=1;strokeColor=none;fillColor=none;strokeWidth=2;fontSize=18;fontStyle=1" vertex="1" parent="WIyWlLk6GJQsqaUBKTNV-1">
          <mxGeometry x="1638" y="510" width="50" height="70" as="geometry" />
        </mxCell>
        <mxCell id="8Fg7yttchRCWMxdPPxp7-100" style="edgeStyle=orthogonalEdgeStyle;rounded=0;orthogonalLoop=1;jettySize=auto;html=1;exitX=0.5;exitY=1;exitDx=0;exitDy=0;entryX=0.5;entryY=0;entryDx=0;entryDy=0;entryPerimeter=0;strokeWidth=2;fontSize=18;fontStyle=1" edge="1" parent="WIyWlLk6GJQsqaUBKTNV-1" source="8Fg7yttchRCWMxdPPxp7-94" target="8Fg7yttchRCWMxdPPxp7-103">
          <mxGeometry relative="1" as="geometry">
            <mxPoint x="1645" y="710" as="targetPoint" />
          </mxGeometry>
        </mxCell>
        <mxCell id="8Fg7yttchRCWMxdPPxp7-101" style="edgeStyle=orthogonalEdgeStyle;rounded=0;orthogonalLoop=1;jettySize=auto;html=1;exitX=1;exitY=0.5;exitDx=0;exitDy=0;entryX=1;entryY=0.5;entryDx=0;entryDy=0;entryPerimeter=0;exitPerimeter=0;strokeWidth=2;fontSize=18;fontStyle=1" edge="1" parent="WIyWlLk6GJQsqaUBKTNV-1" source="8Fg7yttchRCWMxdPPxp7-93" target="8Fg7yttchRCWMxdPPxp7-102">
          <mxGeometry relative="1" as="geometry">
            <mxPoint x="1683" y="180" as="targetPoint" />
            <Array as="points">
              <mxPoint x="1833" y="470" />
              <mxPoint x="1833" y="200" />
            </Array>
            <mxPoint x="1895" y="300" as="sourcePoint" />
          </mxGeometry>
        </mxCell>
        <mxCell id="8Fg7yttchRCWMxdPPxp7-102" value="" style="strokeWidth=2;html=1;shape=mxgraph.flowchart.start_2;whiteSpace=wrap;fontSize=18;fontStyle=1" vertex="1" parent="WIyWlLk6GJQsqaUBKTNV-1">
          <mxGeometry x="1625" y="180" width="40" height="40" as="geometry" />
        </mxCell>
        <mxCell id="8Fg7yttchRCWMxdPPxp7-103" value="&lt;font face=&quot;phetsarath ot&quot; style=&quot;font-size: 18px;&quot;&gt;&lt;span style=&quot;font-size: 18px;&quot;&gt;ສະແດງຂໍ້ມູນ&lt;/span&gt;&lt;/font&gt;" style="strokeWidth=2;html=1;shape=mxgraph.flowchart.display;whiteSpace=wrap;fontSize=18;fontStyle=1" vertex="1" parent="WIyWlLk6GJQsqaUBKTNV-1">
          <mxGeometry x="1560" y="710" width="170" height="70" as="geometry" />
        </mxCell>
        <mxCell id="8Fg7yttchRCWMxdPPxp7-104" style="edgeStyle=none;curved=1;rounded=0;orthogonalLoop=1;jettySize=auto;html=1;exitX=0.5;exitY=1;exitDx=0;exitDy=0;exitPerimeter=0;entryX=0.5;entryY=0;entryDx=0;entryDy=0;entryPerimeter=0;fontSize=18;startSize=8;endSize=8;strokeWidth=2;fontStyle=1" edge="1" parent="WIyWlLk6GJQsqaUBKTNV-1" source="8Fg7yttchRCWMxdPPxp7-103" target="8Fg7yttchRCWMxdPPxp7-95">
          <mxGeometry relative="1" as="geometry" />
        </mxCell>
        <mxCell id="8Fg7yttchRCWMxdPPxp7-105" style="edgeStyle=none;curved=1;rounded=0;orthogonalLoop=1;jettySize=auto;html=1;exitX=0.5;exitY=1;exitDx=0;exitDy=0;exitPerimeter=0;entryX=0.499;entryY=0.137;entryDx=0;entryDy=0;entryPerimeter=0;fontSize=18;startSize=8;endSize=8;strokeWidth=2;fontStyle=1" edge="1" parent="WIyWlLk6GJQsqaUBKTNV-1" source="8Fg7yttchRCWMxdPPxp7-102" target="8Fg7yttchRCWMxdPPxp7-91">
          <mxGeometry relative="1" as="geometry" />
        </mxCell>
        <UserObject label="&lt;font style=&quot;font-size: 24px;&quot; face=&quot;phetsarath ot&quot;&gt;&lt;b&gt;&lt;span style=&quot;&quot; data-lucid-content=&quot;{&amp;quot;t&amp;quot;:&amp;quot;ລົງທະບຽນ&amp;quot;,&amp;quot;m&amp;quot;:[{&amp;quot;s&amp;quot;:0,&amp;quot;n&amp;quot;:&amp;quot;p&amp;quot;,&amp;quot;v&amp;quot;:0.8916666666666667},{&amp;quot;s&amp;quot;:0,&amp;quot;n&amp;quot;:&amp;quot;s&amp;quot;,&amp;quot;v&amp;quot;:21.333333333333336,&amp;quot;e&amp;quot;:8}]}&quot; data-lucid-type=&quot;application/vnd.lucid.text&quot;&gt;&lt;span style=&quot;&quot;&gt;ລົງທະບຽນ&lt;/span&gt;&lt;/span&gt;&lt;br&gt;&lt;/b&gt;&lt;/font&gt;" link="&#xa;&lt;span data-lucid-content=&quot;{&amp;quot;t&amp;quot;:&amp;quot;ລົງທະບຽນ&amp;quot;,&amp;quot;m&amp;quot;:[{&amp;quot;s&amp;quot;:0,&amp;quot;n&amp;quot;:&amp;quot;p&amp;quot;,&amp;quot;v&amp;quot;:0.8916666666666667},{&amp;quot;s&amp;quot;:0,&amp;quot;n&amp;quot;:&amp;quot;s&amp;quot;,&amp;quot;v&amp;quot;:21.333333333333336,&amp;quot;e&amp;quot;:8}]}&quot; data-lucid-type=&quot;application/vnd.lucid.text&quot;&gt;&lt;span style=&quot;font-size:16.000000000000004px;&quot;&gt;ລົງທະບຽນ&lt;/span&gt;&lt;/span&gt;&#xa;&#xa;" id="8Fg7yttchRCWMxdPPxp7-106">
          <mxCell style="rounded=0;whiteSpace=wrap;html=1;fillColor=#dae8fc;strokeColor=#6c8ebf;" vertex="1" parent="WIyWlLk6GJQsqaUBKTNV-1">
            <mxGeometry x="282" y="-40" width="128" height="60" as="geometry" />
          </mxCell>
        </UserObject>
        <UserObject label="&lt;span data-lucid-content=&quot;{&amp;quot;t&amp;quot;:&amp;quot;ເຂົ້າສູ່ລະບົບ&amp;quot;,&amp;quot;m&amp;quot;:[{&amp;quot;s&amp;quot;:0,&amp;quot;n&amp;quot;:&amp;quot;p&amp;quot;,&amp;quot;v&amp;quot;:0.8916666666666667},{&amp;quot;s&amp;quot;:0,&amp;quot;n&amp;quot;:&amp;quot;s&amp;quot;,&amp;quot;v&amp;quot;:21.333333333333336,&amp;quot;e&amp;quot;:13}]}&quot; data-lucid-type=&quot;application/vnd.lucid.text&quot;&gt;&lt;font size=&quot;1&quot; style=&quot;&quot; face=&quot;phetsarath ot&quot;&gt;&lt;b style=&quot;font-size: 24px;&quot;&gt;ເຂົ້າສູ່ລະບົບ&lt;/b&gt;&lt;/font&gt;&lt;/span&gt;&lt;font style=&quot;font-size: 24px;&quot; face=&quot;phetsarath ot&quot;&gt;&lt;b&gt;&lt;br&gt;&lt;/b&gt;&lt;/font&gt;" link="&#xa;&lt;span data-lucid-content=&quot;{&amp;quot;t&amp;quot;:&amp;quot;ລົງທະບຽນ&amp;quot;,&amp;quot;m&amp;quot;:[{&amp;quot;s&amp;quot;:0,&amp;quot;n&amp;quot;:&amp;quot;p&amp;quot;,&amp;quot;v&amp;quot;:0.8916666666666667},{&amp;quot;s&amp;quot;:0,&amp;quot;n&amp;quot;:&amp;quot;s&amp;quot;,&amp;quot;v&amp;quot;:21.333333333333336,&amp;quot;e&amp;quot;:8}]}&quot; data-lucid-type=&quot;application/vnd.lucid.text&quot;&gt;&lt;span style=&quot;font-size:16.000000000000004px;&quot;&gt;ລົງທະບຽນ&lt;/span&gt;&lt;/span&gt;&#xa;&#xa;" id="8Fg7yttchRCWMxdPPxp7-108">
          <mxCell style="rounded=0;whiteSpace=wrap;html=1;fillColor=#dae8fc;strokeColor=#6c8ebf;" vertex="1" parent="WIyWlLk6GJQsqaUBKTNV-1">
            <mxGeometry x="881" y="-80" width="128" height="60" as="geometry" />
          </mxCell>
        </UserObject>
        <UserObject label="&lt;span data-lucid-content=&quot;{&amp;quot;t&amp;quot;:&amp;quot;ຈັດການຂໍ້ມູນ(ເພີມຂໍ້ມູນ)&amp;quot;,&amp;quot;m&amp;quot;:[{&amp;quot;s&amp;quot;:0,&amp;quot;n&amp;quot;:&amp;quot;p&amp;quot;,&amp;quot;v&amp;quot;:0.8916666666666667},{&amp;quot;s&amp;quot;:0,&amp;quot;n&amp;quot;:&amp;quot;s&amp;quot;,&amp;quot;v&amp;quot;:21.333333333333336,&amp;quot;e&amp;quot;:24}]}&quot; data-lucid-type=&quot;application/vnd.lucid.text&quot;&gt;&lt;font style=&quot;font-size: 24px;&quot; face=&quot;phetsarath ot&quot;&gt;&lt;b&gt;ຈັດການຂໍ້ມູນ(ເພີມຂໍ້ມູນ)&lt;/b&gt;&lt;/font&gt;&lt;/span&gt;&lt;font style=&quot;font-size: 24px;&quot; face=&quot;phetsarath ot&quot;&gt;&lt;b&gt;&lt;br&gt;&lt;/b&gt;&lt;/font&gt;" link="&#xa;&lt;span data-lucid-content=&quot;{&amp;quot;t&amp;quot;:&amp;quot;ລົງທະບຽນ&amp;quot;,&amp;quot;m&amp;quot;:[{&amp;quot;s&amp;quot;:0,&amp;quot;n&amp;quot;:&amp;quot;p&amp;quot;,&amp;quot;v&amp;quot;:0.8916666666666667},{&amp;quot;s&amp;quot;:0,&amp;quot;n&amp;quot;:&amp;quot;s&amp;quot;,&amp;quot;v&amp;quot;:21.333333333333336,&amp;quot;e&amp;quot;:8}]}&quot; data-lucid-type=&quot;application/vnd.lucid.text&quot;&gt;&lt;span style=&quot;font-size:16.000000000000004px;&quot;&gt;ລົງທະບຽນ&lt;/span&gt;&lt;/span&gt;&#xa;&#xa;" id="8Fg7yttchRCWMxdPPxp7-109">
          <mxCell style="rounded=0;whiteSpace=wrap;html=1;fillColor=#dae8fc;strokeColor=#6c8ebf;" vertex="1" parent="WIyWlLk6GJQsqaUBKTNV-1">
            <mxGeometry x="1491" y="-90" width="329" height="60" as="geometry" />
          </mxCell>
        </UserObject>
        <mxCell id="8Fg7yttchRCWMxdPPxp7-110" value="&lt;h3 style=&quot;font-size: 18px;&quot;&gt;&lt;font style=&quot;font-size: 18px;&quot; face=&quot;Phetsarath OT&quot;&gt;ເລີ່ມ&lt;/font&gt;&lt;/h3&gt;" style="strokeWidth=2;html=1;shape=mxgraph.flowchart.terminator;whiteSpace=wrap;fontSize=18;fontStyle=1" vertex="1" parent="WIyWlLk6GJQsqaUBKTNV-1">
          <mxGeometry x="2294" y="90" width="100" height="60" as="geometry" />
        </mxCell>
        <mxCell id="8Fg7yttchRCWMxdPPxp7-111" value="&lt;h3 style=&quot;font-size: 18px;&quot;&gt;&lt;span style=&quot;font-size: 18px;&quot; data-lucid-content=&quot;{&amp;quot;t&amp;quot;:&amp;quot;ເລືອກຂໍ້ມູນທີ່ຕ້ອງການແກ້ໄຂ&amp;quot;,&amp;quot;m&amp;quot;:[{&amp;quot;s&amp;quot;:0,&amp;quot;n&amp;quot;:&amp;quot;a&amp;quot;,&amp;quot;v&amp;quot;:&amp;quot;left&amp;quot;},{&amp;quot;s&amp;quot;:0,&amp;quot;n&amp;quot;:&amp;quot;fsp&amp;quot;,&amp;quot;v&amp;quot;:&amp;quot;ss_presetShapeStyle1_textStyle&amp;quot;,&amp;quot;e&amp;quot;:26},{&amp;quot;s&amp;quot;:0,&amp;quot;n&amp;quot;:&amp;quot;fsp2&amp;quot;,&amp;quot;v&amp;quot;:&amp;quot;ss_presetShapeStyle1_textStyle&amp;quot;,&amp;quot;e&amp;quot;:26},{&amp;quot;s&amp;quot;:0,&amp;quot;n&amp;quot;:&amp;quot;s&amp;quot;,&amp;quot;v&amp;quot;:44.44444444444444,&amp;quot;e&amp;quot;:26}]}&quot; data-lucid-type=&quot;application/vnd.lucid.text&quot;&gt;&lt;font style=&quot;font-size: 18px;&quot; face=&quot;phetsarath ot&quot;&gt;ເລືອກຂໍ້ມູນທີ່ຕ້ອງການແກ້ໄຂ&lt;/font&gt;&lt;/span&gt;&lt;br style=&quot;font-size: 18px;&quot;&gt;&lt;/h3&gt;" style="html=1;strokeWidth=2;shape=manualInput;whiteSpace=wrap;rounded=1;size=26;arcSize=11;fontSize=18;fontStyle=1" vertex="1" parent="WIyWlLk6GJQsqaUBKTNV-1">
          <mxGeometry x="2234" y="290" width="220" height="80" as="geometry" />
        </mxCell>
        <mxCell id="8Fg7yttchRCWMxdPPxp7-112" style="edgeStyle=orthogonalEdgeStyle;rounded=0;orthogonalLoop=1;jettySize=auto;html=1;exitX=0.5;exitY=1;exitDx=0;exitDy=0;exitPerimeter=0;entryX=0.5;entryY=0;entryDx=0;entryDy=0;strokeWidth=2;fontSize=18;fontStyle=1" edge="1" parent="WIyWlLk6GJQsqaUBKTNV-1" source="8Fg7yttchRCWMxdPPxp7-113" target="8Fg7yttchRCWMxdPPxp7-114">
          <mxGeometry relative="1" as="geometry" />
        </mxCell>
        <mxCell id="8Fg7yttchRCWMxdPPxp7-113" value="&lt;h3 style=&quot;font-size: 18px;&quot;&gt;&lt;span style=&quot;font-size: 18px;&quot; data-lucid-content=&quot;{&amp;quot;t&amp;quot;:&amp;quot;ແກ້ໄຂຂໍ້ມູນຜູ້ໃຊ້&amp;quot;,&amp;quot;m&amp;quot;:[{&amp;quot;s&amp;quot;:0,&amp;quot;n&amp;quot;:&amp;quot;s&amp;quot;,&amp;quot;v&amp;quot;:48.88888888888889,&amp;quot;e&amp;quot;:17},{&amp;quot;s&amp;quot;:0,&amp;quot;n&amp;quot;:&amp;quot;fsp&amp;quot;,&amp;quot;v&amp;quot;:&amp;quot;ss_presetShapeStyle1_textStyle&amp;quot;,&amp;quot;e&amp;quot;:17},{&amp;quot;s&amp;quot;:0,&amp;quot;n&amp;quot;:&amp;quot;fsp2&amp;quot;,&amp;quot;v&amp;quot;:&amp;quot;ss_presetShapeStyle1_textStyle&amp;quot;,&amp;quot;e&amp;quot;:17}]}&quot; data-lucid-type=&quot;application/vnd.lucid.text&quot;&gt;&lt;font style=&quot;font-size: 18px;&quot; face=&quot;phetsarath ot&quot;&gt;ແກ້ໄຂຂໍ້ມູນຜູ້ໃຊ້&lt;/font&gt;&lt;/span&gt;&lt;br style=&quot;font-size: 18px;&quot;&gt;&lt;/h3&gt;" style="strokeWidth=2;html=1;shape=mxgraph.flowchart.decision;whiteSpace=wrap;fontSize=18;fontStyle=1" vertex="1" parent="WIyWlLk6GJQsqaUBKTNV-1">
          <mxGeometry x="2219" y="430" width="250" height="100" as="geometry" />
        </mxCell>
        <mxCell id="8Fg7yttchRCWMxdPPxp7-114" value="&lt;h3 style=&quot;font-size: 18px;&quot;&gt;&lt;span style=&quot;font-size: 18px;&quot; data-lucid-content=&quot;{&amp;quot;t&amp;quot;:&amp;quot;ບັນທຶກຂໍ້ມູນ&amp;quot;,&amp;quot;m&amp;quot;:[{&amp;quot;s&amp;quot;:0,&amp;quot;n&amp;quot;:&amp;quot;s&amp;quot;,&amp;quot;v&amp;quot;:53.333333333333336,&amp;quot;e&amp;quot;:12},{&amp;quot;s&amp;quot;:0,&amp;quot;n&amp;quot;:&amp;quot;fsp&amp;quot;,&amp;quot;v&amp;quot;:&amp;quot;ss_presetShapeStyle1_textStyle&amp;quot;,&amp;quot;e&amp;quot;:12},{&amp;quot;s&amp;quot;:0,&amp;quot;n&amp;quot;:&amp;quot;fsp2&amp;quot;,&amp;quot;v&amp;quot;:&amp;quot;ss_presetShapeStyle1_textStyle&amp;quot;,&amp;quot;e&amp;quot;:12}]}&quot; data-lucid-type=&quot;application/vnd.lucid.text&quot;&gt;&lt;font style=&quot;font-size: 18px;&quot; face=&quot;phetsarath ot&quot;&gt;ບັນທຶກຂໍ້ມູນ&lt;/font&gt;&lt;/span&gt;&lt;br style=&quot;font-size: 18px;&quot;&gt;&lt;/h3&gt;" style="rounded=1;whiteSpace=wrap;html=1;absoluteArcSize=1;arcSize=14;strokeWidth=2;fontSize=18;fontStyle=1" vertex="1" parent="WIyWlLk6GJQsqaUBKTNV-1">
          <mxGeometry x="2236.5" y="585" width="215" height="65" as="geometry" />
        </mxCell>
        <mxCell id="8Fg7yttchRCWMxdPPxp7-115" value="&lt;h3 style=&quot;font-size: 18px;&quot;&gt;&lt;font style=&quot;font-size: 18px;&quot; face=&quot;Phetsarath OT&quot;&gt;&lt;span style=&quot;font-size: 18px;&quot;&gt;ສິ້ນສຸດ&lt;/span&gt;&lt;/font&gt;&lt;/h3&gt;" style="strokeWidth=2;html=1;shape=mxgraph.flowchart.terminator;whiteSpace=wrap;fontSize=18;fontStyle=1" vertex="1" parent="WIyWlLk6GJQsqaUBKTNV-1">
          <mxGeometry x="2294" y="850" width="100" height="60" as="geometry" />
        </mxCell>
        <mxCell id="8Fg7yttchRCWMxdPPxp7-116" style="rounded=0;orthogonalLoop=1;jettySize=auto;html=1;entryX=0.5;entryY=0;entryDx=0;entryDy=0;entryPerimeter=0;strokeWidth=2;fontSize=18;fontStyle=1" edge="1" parent="WIyWlLk6GJQsqaUBKTNV-1" source="8Fg7yttchRCWMxdPPxp7-110" target="8Fg7yttchRCWMxdPPxp7-122">
          <mxGeometry relative="1" as="geometry">
            <mxPoint x="2343" y="190" as="targetPoint" />
          </mxGeometry>
        </mxCell>
        <mxCell id="8Fg7yttchRCWMxdPPxp7-117" style="edgeStyle=orthogonalEdgeStyle;rounded=0;orthogonalLoop=1;jettySize=auto;html=1;entryX=0.5;entryY=0;entryDx=0;entryDy=0;entryPerimeter=0;strokeWidth=2;fontSize=18;fontStyle=1" edge="1" parent="WIyWlLk6GJQsqaUBKTNV-1" source="8Fg7yttchRCWMxdPPxp7-111" target="8Fg7yttchRCWMxdPPxp7-113">
          <mxGeometry relative="1" as="geometry" />
        </mxCell>
        <mxCell id="8Fg7yttchRCWMxdPPxp7-118" value="&lt;h3 style=&quot;font-size: 18px;&quot;&gt;&lt;font style=&quot;font-size: 18px;&quot; face=&quot;Phetsarath OT&quot;&gt;ບໍ່ຖືກ&lt;/font&gt;&lt;/h3&gt;" style="text;html=1;align=center;verticalAlign=middle;resizable=0;points=[];autosize=1;strokeColor=none;fillColor=none;strokeWidth=2;fontSize=18;fontStyle=1" vertex="1" parent="WIyWlLk6GJQsqaUBKTNV-1">
          <mxGeometry x="2464" y="415" width="60" height="70" as="geometry" />
        </mxCell>
        <mxCell id="8Fg7yttchRCWMxdPPxp7-119" value="&lt;h3 style=&quot;font-size: 18px;&quot;&gt;&lt;font style=&quot;font-size: 18px;&quot; face=&quot;Phetsarath OT&quot;&gt;ຖືກ&lt;/font&gt;&lt;/h3&gt;" style="text;html=1;align=center;verticalAlign=middle;resizable=0;points=[];autosize=1;strokeColor=none;fillColor=none;strokeWidth=2;fontSize=18;fontStyle=1" vertex="1" parent="WIyWlLk6GJQsqaUBKTNV-1">
          <mxGeometry x="2337" y="520" width="50" height="70" as="geometry" />
        </mxCell>
        <mxCell id="8Fg7yttchRCWMxdPPxp7-120" style="edgeStyle=orthogonalEdgeStyle;rounded=0;orthogonalLoop=1;jettySize=auto;html=1;exitX=0.5;exitY=1;exitDx=0;exitDy=0;entryX=0.5;entryY=0;entryDx=0;entryDy=0;entryPerimeter=0;strokeWidth=2;fontSize=18;fontStyle=1" edge="1" parent="WIyWlLk6GJQsqaUBKTNV-1" source="8Fg7yttchRCWMxdPPxp7-114" target="8Fg7yttchRCWMxdPPxp7-123">
          <mxGeometry relative="1" as="geometry">
            <mxPoint x="2344" y="720" as="targetPoint" />
          </mxGeometry>
        </mxCell>
        <mxCell id="8Fg7yttchRCWMxdPPxp7-121" style="edgeStyle=orthogonalEdgeStyle;rounded=0;orthogonalLoop=1;jettySize=auto;html=1;exitX=1;exitY=0.5;exitDx=0;exitDy=0;entryX=1;entryY=0.5;entryDx=0;entryDy=0;entryPerimeter=0;exitPerimeter=0;strokeWidth=2;fontSize=18;fontStyle=1" edge="1" parent="WIyWlLk6GJQsqaUBKTNV-1" source="8Fg7yttchRCWMxdPPxp7-113" target="8Fg7yttchRCWMxdPPxp7-122">
          <mxGeometry relative="1" as="geometry">
            <mxPoint x="2382" y="190" as="targetPoint" />
            <Array as="points">
              <mxPoint x="2532" y="480" />
              <mxPoint x="2532" y="210" />
            </Array>
            <mxPoint x="2594" y="310" as="sourcePoint" />
          </mxGeometry>
        </mxCell>
        <mxCell id="8Fg7yttchRCWMxdPPxp7-122" value="" style="strokeWidth=2;html=1;shape=mxgraph.flowchart.start_2;whiteSpace=wrap;fontSize=18;fontStyle=1" vertex="1" parent="WIyWlLk6GJQsqaUBKTNV-1">
          <mxGeometry x="2324" y="190" width="40" height="40" as="geometry" />
        </mxCell>
        <mxCell id="8Fg7yttchRCWMxdPPxp7-123" value="&lt;font face=&quot;phetsarath ot&quot; style=&quot;font-size: 18px;&quot;&gt;&lt;span style=&quot;font-size: 18px;&quot;&gt;ສະແດງຂໍ້ມູນ&lt;/span&gt;&lt;/font&gt;" style="strokeWidth=2;html=1;shape=mxgraph.flowchart.display;whiteSpace=wrap;fontSize=18;fontStyle=1" vertex="1" parent="WIyWlLk6GJQsqaUBKTNV-1">
          <mxGeometry x="2259" y="720" width="170" height="70" as="geometry" />
        </mxCell>
        <mxCell id="8Fg7yttchRCWMxdPPxp7-124" style="edgeStyle=none;curved=1;rounded=0;orthogonalLoop=1;jettySize=auto;html=1;exitX=0.5;exitY=1;exitDx=0;exitDy=0;exitPerimeter=0;entryX=0.5;entryY=0;entryDx=0;entryDy=0;entryPerimeter=0;fontSize=18;startSize=8;endSize=8;strokeWidth=2;fontStyle=1" edge="1" parent="WIyWlLk6GJQsqaUBKTNV-1" source="8Fg7yttchRCWMxdPPxp7-123" target="8Fg7yttchRCWMxdPPxp7-115">
          <mxGeometry relative="1" as="geometry" />
        </mxCell>
        <mxCell id="8Fg7yttchRCWMxdPPxp7-125" style="edgeStyle=none;curved=1;rounded=0;orthogonalLoop=1;jettySize=auto;html=1;exitX=0.5;exitY=1;exitDx=0;exitDy=0;exitPerimeter=0;entryX=0.499;entryY=0.137;entryDx=0;entryDy=0;entryPerimeter=0;fontSize=18;startSize=8;endSize=8;strokeWidth=2;fontStyle=1" edge="1" parent="WIyWlLk6GJQsqaUBKTNV-1" source="8Fg7yttchRCWMxdPPxp7-122" target="8Fg7yttchRCWMxdPPxp7-111">
          <mxGeometry relative="1" as="geometry" />
        </mxCell>
        <UserObject label="&lt;span style=&quot;font-size: 24px;&quot; data-lucid-content=&quot;{&amp;quot;t&amp;quot;:&amp;quot;ຈັດການຂໍ້ມູນ(ແກ້ໄຂຂໍ້ມູນ)&amp;quot;,&amp;quot;m&amp;quot;:[{&amp;quot;s&amp;quot;:0,&amp;quot;n&amp;quot;:&amp;quot;p&amp;quot;,&amp;quot;v&amp;quot;:0.8916666666666667},{&amp;quot;s&amp;quot;:13,&amp;quot;n&amp;quot;:&amp;quot;s&amp;quot;,&amp;quot;v&amp;quot;:21.333333333333336,&amp;quot;e&amp;quot;:25}]}&quot; data-lucid-type=&quot;application/vnd.lucid.text&quot;&gt;&lt;font style=&quot;font-size: 24px;&quot; face=&quot;phetsarath ot&quot;&gt;&lt;b&gt;ຈັດການຂໍ້ມູນ(&lt;span style=&quot;&quot;&gt;ແກ້ໄຂຂໍ້ມູນ)&lt;/span&gt;&lt;/b&gt;&lt;/font&gt;&lt;/span&gt;&lt;font style=&quot;font-size: 24px;&quot; face=&quot;phetsarath ot&quot;&gt;&lt;b&gt;&lt;br&gt;&lt;/b&gt;&lt;/font&gt;" link="&#xa;&lt;span data-lucid-content=&quot;{&amp;quot;t&amp;quot;:&amp;quot;ລົງທະບຽນ&amp;quot;,&amp;quot;m&amp;quot;:[{&amp;quot;s&amp;quot;:0,&amp;quot;n&amp;quot;:&amp;quot;p&amp;quot;,&amp;quot;v&amp;quot;:0.8916666666666667},{&amp;quot;s&amp;quot;:0,&amp;quot;n&amp;quot;:&amp;quot;s&amp;quot;,&amp;quot;v&amp;quot;:21.333333333333336,&amp;quot;e&amp;quot;:8}]}&quot; data-lucid-type=&quot;application/vnd.lucid.text&quot;&gt;&lt;span style=&quot;font-size:16.000000000000004px;&quot;&gt;ລົງທະບຽນ&lt;/span&gt;&lt;/span&gt;&#xa;&#xa;" id="8Fg7yttchRCWMxdPPxp7-126">
          <mxCell style="rounded=0;whiteSpace=wrap;html=1;fillColor=#dae8fc;strokeColor=#6c8ebf;" vertex="1" parent="WIyWlLk6GJQsqaUBKTNV-1">
            <mxGeometry x="2190" y="-80" width="329" height="60" as="geometry" />
          </mxCell>
        </UserObject>
        <mxCell id="8Fg7yttchRCWMxdPPxp7-127" value="&lt;h3 style=&quot;font-size: 18px;&quot;&gt;&lt;font style=&quot;font-size: 18px;&quot; face=&quot;Phetsarath OT&quot;&gt;ເລີ່ມ&lt;/font&gt;&lt;/h3&gt;" style="strokeWidth=2;html=1;shape=mxgraph.flowchart.terminator;whiteSpace=wrap;fontSize=18;fontStyle=1" vertex="1" parent="WIyWlLk6GJQsqaUBKTNV-1">
          <mxGeometry x="2964" y="90" width="100" height="60" as="geometry" />
        </mxCell>
        <mxCell id="8Fg7yttchRCWMxdPPxp7-128" value="&lt;h3 style=&quot;font-size: 18px;&quot;&gt;&lt;span style=&quot;font-size: 18px;&quot; data-lucid-content=&quot;{&amp;quot;t&amp;quot;:&amp;quot;ເລືອກຂໍ້ມູນທີ່ຕ້ອງການແກ້ໄຂ&amp;quot;,&amp;quot;m&amp;quot;:[{&amp;quot;s&amp;quot;:0,&amp;quot;n&amp;quot;:&amp;quot;a&amp;quot;,&amp;quot;v&amp;quot;:&amp;quot;left&amp;quot;},{&amp;quot;s&amp;quot;:0,&amp;quot;n&amp;quot;:&amp;quot;fsp&amp;quot;,&amp;quot;v&amp;quot;:&amp;quot;ss_presetShapeStyle1_textStyle&amp;quot;,&amp;quot;e&amp;quot;:26},{&amp;quot;s&amp;quot;:0,&amp;quot;n&amp;quot;:&amp;quot;fsp2&amp;quot;,&amp;quot;v&amp;quot;:&amp;quot;ss_presetShapeStyle1_textStyle&amp;quot;,&amp;quot;e&amp;quot;:26},{&amp;quot;s&amp;quot;:0,&amp;quot;n&amp;quot;:&amp;quot;s&amp;quot;,&amp;quot;v&amp;quot;:44.44444444444444,&amp;quot;e&amp;quot;:26}]}&quot; data-lucid-type=&quot;application/vnd.lucid.text&quot;&gt;&lt;font style=&quot;font-size: 18px;&quot; face=&quot;phetsarath ot&quot;&gt;ເລືອກຂໍ້ມູນທີ່ຕ້ອງການລືບ&lt;/font&gt;&lt;/span&gt;&lt;br style=&quot;font-size: 18px;&quot;&gt;&lt;/h3&gt;" style="html=1;strokeWidth=2;shape=manualInput;whiteSpace=wrap;rounded=1;size=26;arcSize=11;fontSize=18;fontStyle=1" vertex="1" parent="WIyWlLk6GJQsqaUBKTNV-1">
          <mxGeometry x="2904" y="210" width="220" height="80" as="geometry" />
        </mxCell>
        <mxCell id="8Fg7yttchRCWMxdPPxp7-129" style="edgeStyle=orthogonalEdgeStyle;rounded=0;orthogonalLoop=1;jettySize=auto;html=1;exitX=0.5;exitY=1;exitDx=0;exitDy=0;exitPerimeter=0;entryX=0.5;entryY=0;entryDx=0;entryDy=0;strokeWidth=2;fontSize=18;fontStyle=1" edge="1" parent="WIyWlLk6GJQsqaUBKTNV-1" target="8Fg7yttchRCWMxdPPxp7-131">
          <mxGeometry relative="1" as="geometry">
            <mxPoint x="3014" y="450" as="sourcePoint" />
          </mxGeometry>
        </mxCell>
        <mxCell id="8Fg7yttchRCWMxdPPxp7-130" value="&lt;h3 style=&quot;font-size: 18px;&quot;&gt;&lt;span style=&quot;font-size: 18px;&quot; data-lucid-content=&quot;{&amp;quot;t&amp;quot;:&amp;quot;ລົບຂໍ້ມູນຜູ້ໃຊ້ສຳເລັດ&amp;quot;,&amp;quot;m&amp;quot;:[{&amp;quot;s&amp;quot;:0,&amp;quot;n&amp;quot;:&amp;quot;s&amp;quot;,&amp;quot;v&amp;quot;:48.88888888888889,&amp;quot;e&amp;quot;:21},{&amp;quot;s&amp;quot;:0,&amp;quot;n&amp;quot;:&amp;quot;fsp&amp;quot;,&amp;quot;v&amp;quot;:&amp;quot;ss_presetShapeStyle1_textStyle&amp;quot;,&amp;quot;e&amp;quot;:21},{&amp;quot;s&amp;quot;:0,&amp;quot;n&amp;quot;:&amp;quot;fsp2&amp;quot;,&amp;quot;v&amp;quot;:&amp;quot;ss_presetShapeStyle1_textStyle&amp;quot;,&amp;quot;e&amp;quot;:21}]}&quot; data-lucid-type=&quot;application/vnd.lucid.text&quot;&gt;&lt;font style=&quot;font-size: 18px;&quot; face=&quot;phetsarath ot&quot;&gt;ລົບຂໍ້ມູນຜູ້ໃຊ້ສຳເລັດ&lt;/font&gt;&lt;/span&gt;&lt;br style=&quot;font-size: 18px;&quot;&gt;&lt;/h3&gt;" style="strokeWidth=2;html=1;shape=mxgraph.flowchart.decision;whiteSpace=wrap;fontSize=18;fontStyle=1" vertex="1" parent="WIyWlLk6GJQsqaUBKTNV-1">
          <mxGeometry x="2889" y="350" width="250" height="100" as="geometry" />
        </mxCell>
        <mxCell id="8Fg7yttchRCWMxdPPxp7-131" value="&lt;h3 style=&quot;font-size: 18px;&quot;&gt;&lt;span style=&quot;font-size: 18px;&quot; data-lucid-content=&quot;{&amp;quot;t&amp;quot;:&amp;quot;ບັນທຶກຂໍ້ມູນ&amp;quot;,&amp;quot;m&amp;quot;:[{&amp;quot;s&amp;quot;:0,&amp;quot;n&amp;quot;:&amp;quot;s&amp;quot;,&amp;quot;v&amp;quot;:53.333333333333336,&amp;quot;e&amp;quot;:12},{&amp;quot;s&amp;quot;:0,&amp;quot;n&amp;quot;:&amp;quot;fsp&amp;quot;,&amp;quot;v&amp;quot;:&amp;quot;ss_presetShapeStyle1_textStyle&amp;quot;,&amp;quot;e&amp;quot;:12},{&amp;quot;s&amp;quot;:0,&amp;quot;n&amp;quot;:&amp;quot;fsp2&amp;quot;,&amp;quot;v&amp;quot;:&amp;quot;ss_presetShapeStyle1_textStyle&amp;quot;,&amp;quot;e&amp;quot;:12}]}&quot; data-lucid-type=&quot;application/vnd.lucid.text&quot;&gt;&lt;font style=&quot;font-size: 18px;&quot; face=&quot;phetsarath ot&quot;&gt;ບັນທຶກຂໍ້ມູນ&lt;/font&gt;&lt;/span&gt;&lt;br style=&quot;font-size: 18px;&quot;&gt;&lt;/h3&gt;" style="rounded=1;whiteSpace=wrap;html=1;absoluteArcSize=1;arcSize=14;strokeWidth=2;fontSize=18;fontStyle=1" vertex="1" parent="WIyWlLk6GJQsqaUBKTNV-1">
          <mxGeometry x="2906.5" y="505" width="215" height="65" as="geometry" />
        </mxCell>
        <mxCell id="8Fg7yttchRCWMxdPPxp7-133" style="edgeStyle=orthogonalEdgeStyle;rounded=0;orthogonalLoop=1;jettySize=auto;html=1;entryX=0.5;entryY=0;entryDx=0;entryDy=0;entryPerimeter=0;strokeWidth=2;fontSize=18;fontStyle=1" edge="1" parent="WIyWlLk6GJQsqaUBKTNV-1" source="8Fg7yttchRCWMxdPPxp7-128">
          <mxGeometry relative="1" as="geometry">
            <mxPoint x="3014" y="350" as="targetPoint" />
          </mxGeometry>
        </mxCell>
        <mxCell id="8Fg7yttchRCWMxdPPxp7-136" style="edgeStyle=orthogonalEdgeStyle;rounded=0;orthogonalLoop=1;jettySize=auto;html=1;exitX=0.5;exitY=1;exitDx=0;exitDy=0;entryX=0.5;entryY=0;entryDx=0;entryDy=0;entryPerimeter=0;strokeWidth=2;fontSize=18;fontStyle=1" edge="1" parent="WIyWlLk6GJQsqaUBKTNV-1" source="8Fg7yttchRCWMxdPPxp7-131" target="8Fg7yttchRCWMxdPPxp7-139">
          <mxGeometry relative="1" as="geometry">
            <mxPoint x="3014" y="640" as="targetPoint" />
          </mxGeometry>
        </mxCell>
        <mxCell id="8Fg7yttchRCWMxdPPxp7-139" value="&lt;font face=&quot;phetsarath ot&quot; style=&quot;font-size: 18px;&quot;&gt;&lt;span style=&quot;font-size: 18px;&quot;&gt;ສະແດງຂໍ້ມູນ&lt;/span&gt;&lt;/font&gt;" style="strokeWidth=2;html=1;shape=mxgraph.flowchart.display;whiteSpace=wrap;fontSize=18;fontStyle=1" vertex="1" parent="WIyWlLk6GJQsqaUBKTNV-1">
          <mxGeometry x="2929" y="640" width="170" height="70" as="geometry" />
        </mxCell>
        <mxCell id="8Fg7yttchRCWMxdPPxp7-140" style="edgeStyle=none;curved=1;rounded=0;orthogonalLoop=1;jettySize=auto;html=1;exitX=0.5;exitY=1;exitDx=0;exitDy=0;exitPerimeter=0;entryX=0.5;entryY=0;entryDx=0;entryDy=0;entryPerimeter=0;fontSize=18;startSize=8;endSize=8;strokeWidth=2;fontStyle=1" edge="1" parent="WIyWlLk6GJQsqaUBKTNV-1" source="8Fg7yttchRCWMxdPPxp7-139" target="8Fg7yttchRCWMxdPPxp7-144">
          <mxGeometry relative="1" as="geometry">
            <mxPoint x="3014" y="770" as="targetPoint" />
          </mxGeometry>
        </mxCell>
        <UserObject label="&lt;span style=&quot;font-size: 24px;&quot; data-lucid-content=&quot;{&amp;quot;t&amp;quot;:&amp;quot;ຈັດການຂໍ້ມູນ(ແກ້ໄຂຂໍ້ມູນ)&amp;quot;,&amp;quot;m&amp;quot;:[{&amp;quot;s&amp;quot;:0,&amp;quot;n&amp;quot;:&amp;quot;p&amp;quot;,&amp;quot;v&amp;quot;:0.8916666666666667},{&amp;quot;s&amp;quot;:13,&amp;quot;n&amp;quot;:&amp;quot;s&amp;quot;,&amp;quot;v&amp;quot;:21.333333333333336,&amp;quot;e&amp;quot;:25}]}&quot; data-lucid-type=&quot;application/vnd.lucid.text&quot;&gt;&lt;font style=&quot;font-size: 24px;&quot; face=&quot;phetsarath ot&quot;&gt;&lt;b&gt;ຈັດການຂໍ້ມູນ(ລືບ&lt;span style=&quot;&quot;&gt;ຂໍ້ມູນ)&lt;/span&gt;&lt;/b&gt;&lt;/font&gt;&lt;/span&gt;&lt;font style=&quot;font-size: 24px;&quot; face=&quot;phetsarath ot&quot;&gt;&lt;b&gt;&lt;br&gt;&lt;/b&gt;&lt;/font&gt;" link="&#xa;&lt;span data-lucid-content=&quot;{&amp;quot;t&amp;quot;:&amp;quot;ລົງທະບຽນ&amp;quot;,&amp;quot;m&amp;quot;:[{&amp;quot;s&amp;quot;:0,&amp;quot;n&amp;quot;:&amp;quot;p&amp;quot;,&amp;quot;v&amp;quot;:0.8916666666666667},{&amp;quot;s&amp;quot;:0,&amp;quot;n&amp;quot;:&amp;quot;s&amp;quot;,&amp;quot;v&amp;quot;:21.333333333333336,&amp;quot;e&amp;quot;:8}]}&quot; data-lucid-type=&quot;application/vnd.lucid.text&quot;&gt;&lt;span style=&quot;font-size:16.000000000000004px;&quot;&gt;ລົງທະບຽນ&lt;/span&gt;&lt;/span&gt;&#xa;&#xa;" id="8Fg7yttchRCWMxdPPxp7-142">
          <mxCell style="rounded=0;whiteSpace=wrap;html=1;fillColor=#dae8fc;strokeColor=#6c8ebf;" vertex="1" parent="WIyWlLk6GJQsqaUBKTNV-1">
            <mxGeometry x="2860" y="-80" width="329" height="60" as="geometry" />
          </mxCell>
        </UserObject>
        <mxCell id="8Fg7yttchRCWMxdPPxp7-143" style="edgeStyle=none;curved=1;rounded=0;orthogonalLoop=1;jettySize=auto;html=1;entryX=0.494;entryY=0.132;entryDx=0;entryDy=0;entryPerimeter=0;fontSize=18;startSize=8;endSize=8;strokeWidth=2;fontStyle=1" edge="1" parent="WIyWlLk6GJQsqaUBKTNV-1" source="8Fg7yttchRCWMxdPPxp7-127" target="8Fg7yttchRCWMxdPPxp7-128">
          <mxGeometry relative="1" as="geometry" />
        </mxCell>
        <mxCell id="8Fg7yttchRCWMxdPPxp7-144" value="&lt;h3 style=&quot;font-size: 18px;&quot;&gt;&lt;font style=&quot;font-size: 18px;&quot; face=&quot;Phetsarath OT&quot;&gt;&lt;span style=&quot;font-size: 18px;&quot;&gt;ສິ້ນສຸດ&lt;/span&gt;&lt;/font&gt;&lt;/h3&gt;" style="strokeWidth=2;html=1;shape=mxgraph.flowchart.terminator;whiteSpace=wrap;fontSize=18;fontStyle=1" vertex="1" parent="WIyWlLk6GJQsqaUBKTNV-1">
          <mxGeometry x="2964" y="770" width="100" height="60" as="geometry" />
        </mxCell>
        <mxCell id="8Fg7yttchRCWMxdPPxp7-157" value="&lt;h3 style=&quot;font-size: 18px;&quot;&gt;&lt;font style=&quot;font-size: 18px;&quot; face=&quot;Phetsarath OT&quot;&gt;ເລີ່ມ&lt;/font&gt;&lt;/h3&gt;" style="strokeWidth=2;html=1;shape=mxgraph.flowchart.terminator;whiteSpace=wrap;fontSize=18;fontStyle=1" vertex="1" parent="WIyWlLk6GJQsqaUBKTNV-1">
          <mxGeometry x="3454" y="90" width="100" height="60" as="geometry" />
        </mxCell>
        <mxCell id="8Fg7yttchRCWMxdPPxp7-174" style="edgeStyle=none;curved=1;rounded=0;orthogonalLoop=1;jettySize=auto;html=1;exitX=0.5;exitY=1;exitDx=0;exitDy=0;entryX=0.5;entryY=0;entryDx=0;entryDy=0;fontSize=18;startSize=8;endSize=8;strokeWidth=2;fontStyle=1" edge="1" parent="WIyWlLk6GJQsqaUBKTNV-1" source="8Fg7yttchRCWMxdPPxp7-158" target="8Fg7yttchRCWMxdPPxp7-161">
          <mxGeometry relative="1" as="geometry" />
        </mxCell>
        <mxCell id="8Fg7yttchRCWMxdPPxp7-158" value="&lt;h3 style=&quot;font-size: 18px;&quot;&gt;&lt;span style=&quot;font-size: 18px;&quot; data-lucid-content=&quot;{&amp;quot;t&amp;quot;:&amp;quot;ປ້ອນຂໍ້ມູນທີຢູ່ຂອງຮ້ານ&amp;quot;,&amp;quot;m&amp;quot;:[{&amp;quot;s&amp;quot;:0,&amp;quot;n&amp;quot;:&amp;quot;a&amp;quot;,&amp;quot;v&amp;quot;:&amp;quot;left&amp;quot;},{&amp;quot;s&amp;quot;:0,&amp;quot;n&amp;quot;:&amp;quot;fsp&amp;quot;,&amp;quot;v&amp;quot;:&amp;quot;ss_presetShapeStyle1_textStyle&amp;quot;,&amp;quot;e&amp;quot;:22},{&amp;quot;s&amp;quot;:0,&amp;quot;n&amp;quot;:&amp;quot;fsp2&amp;quot;,&amp;quot;v&amp;quot;:&amp;quot;ss_presetShapeStyle1_textStyle&amp;quot;,&amp;quot;e&amp;quot;:22},{&amp;quot;s&amp;quot;:0,&amp;quot;n&amp;quot;:&amp;quot;s&amp;quot;,&amp;quot;v&amp;quot;:53.333333333333336,&amp;quot;e&amp;quot;:22}]}&quot; data-lucid-type=&quot;application/vnd.lucid.text&quot;&gt;&lt;font style=&quot;font-size: 18px;&quot; face=&quot;phetsarath ot&quot;&gt;ປ້ອນຂໍ້ມູນທີ່ຢູ່ຂອງຮ້ານ&lt;/font&gt;&lt;/span&gt;&lt;br style=&quot;font-size: 18px;&quot;&gt;&lt;/h3&gt;" style="html=1;strokeWidth=2;shape=manualInput;whiteSpace=wrap;rounded=1;size=26;arcSize=11;fontSize=18;fontStyle=1" vertex="1" parent="WIyWlLk6GJQsqaUBKTNV-1">
          <mxGeometry x="3394" y="290" width="220" height="80" as="geometry" />
        </mxCell>
        <mxCell id="8Fg7yttchRCWMxdPPxp7-160" value="&lt;h3 style=&quot;font-size: 18px;&quot;&gt;&lt;span style=&quot;font-size: 18px;&quot; data-lucid-content=&quot;{&amp;quot;t&amp;quot;:&amp;quot;ແກ້ໄຂຂໍ້ມູນຜູ້ໃຊ້&amp;quot;,&amp;quot;m&amp;quot;:[{&amp;quot;s&amp;quot;:0,&amp;quot;n&amp;quot;:&amp;quot;s&amp;quot;,&amp;quot;v&amp;quot;:48.88888888888889,&amp;quot;e&amp;quot;:17},{&amp;quot;s&amp;quot;:0,&amp;quot;n&amp;quot;:&amp;quot;fsp&amp;quot;,&amp;quot;v&amp;quot;:&amp;quot;ss_presetShapeStyle1_textStyle&amp;quot;,&amp;quot;e&amp;quot;:17},{&amp;quot;s&amp;quot;:0,&amp;quot;n&amp;quot;:&amp;quot;fsp2&amp;quot;,&amp;quot;v&amp;quot;:&amp;quot;ss_presetShapeStyle1_textStyle&amp;quot;,&amp;quot;e&amp;quot;:17}]}&quot; data-lucid-type=&quot;application/vnd.lucid.text&quot;&gt;&lt;font style=&quot;font-size: 18px;&quot; face=&quot;phetsarath ot&quot;&gt;ແກ້ໄຂຂໍ້ມູນຜູ້ໃຊ້&lt;/font&gt;&lt;/span&gt;&lt;br style=&quot;font-size: 18px;&quot;&gt;&lt;/h3&gt;" style="strokeWidth=2;html=1;shape=mxgraph.flowchart.decision;whiteSpace=wrap;fontSize=18;fontStyle=1" vertex="1" parent="WIyWlLk6GJQsqaUBKTNV-1">
          <mxGeometry x="3379" y="570" width="250" height="100" as="geometry" />
        </mxCell>
        <mxCell id="8Fg7yttchRCWMxdPPxp7-161" value="&lt;h3 style=&quot;font-size: 18px;&quot;&gt;&lt;span style=&quot;font-size: 18px;&quot; data-lucid-content=&quot;{&amp;quot;t&amp;quot;:&amp;quot;ບັນທຶກຂໍ້ມູນທີຢູ່ຮ້ານ&amp;quot;,&amp;quot;m&amp;quot;:[{&amp;quot;s&amp;quot;:0,&amp;quot;n&amp;quot;:&amp;quot;fsp&amp;quot;,&amp;quot;v&amp;quot;:&amp;quot;ss_presetShapeStyle1_textStyle&amp;quot;,&amp;quot;e&amp;quot;:21},{&amp;quot;s&amp;quot;:0,&amp;quot;n&amp;quot;:&amp;quot;fsp2&amp;quot;,&amp;quot;v&amp;quot;:&amp;quot;ss_presetShapeStyle1_textStyle&amp;quot;,&amp;quot;e&amp;quot;:21},{&amp;quot;s&amp;quot;:0,&amp;quot;n&amp;quot;:&amp;quot;s&amp;quot;,&amp;quot;v&amp;quot;:53.333333333333336,&amp;quot;e&amp;quot;:21}]}&quot; data-lucid-type=&quot;application/vnd.lucid.text&quot;&gt;&lt;font style=&quot;font-size: 18px;&quot; face=&quot;phetsarath ot&quot;&gt;ບັນທຶກຂໍ້ມູນທີ່ຢູ່ຮ້ານ&lt;/font&gt;&lt;/span&gt;&lt;br style=&quot;font-size: 18px;&quot;&gt;&lt;/h3&gt;" style="rounded=1;whiteSpace=wrap;html=1;absoluteArcSize=1;arcSize=14;strokeWidth=2;fontSize=18;fontStyle=1" vertex="1" parent="WIyWlLk6GJQsqaUBKTNV-1">
          <mxGeometry x="3396.5" y="437.5" width="215" height="65" as="geometry" />
        </mxCell>
        <mxCell id="8Fg7yttchRCWMxdPPxp7-162" value="&lt;h3 style=&quot;font-size: 18px;&quot;&gt;&lt;font style=&quot;font-size: 18px;&quot; face=&quot;Phetsarath OT&quot;&gt;&lt;span style=&quot;font-size: 18px;&quot;&gt;ສິ້ນສຸດ&lt;/span&gt;&lt;/font&gt;&lt;/h3&gt;" style="strokeWidth=2;html=1;shape=mxgraph.flowchart.terminator;whiteSpace=wrap;fontSize=18;fontStyle=1" vertex="1" parent="WIyWlLk6GJQsqaUBKTNV-1">
          <mxGeometry x="3454" y="880" width="100" height="60" as="geometry" />
        </mxCell>
        <mxCell id="8Fg7yttchRCWMxdPPxp7-163" style="rounded=0;orthogonalLoop=1;jettySize=auto;html=1;entryX=0.5;entryY=0;entryDx=0;entryDy=0;entryPerimeter=0;strokeWidth=2;fontSize=18;fontStyle=1" edge="1" parent="WIyWlLk6GJQsqaUBKTNV-1" source="8Fg7yttchRCWMxdPPxp7-157" target="8Fg7yttchRCWMxdPPxp7-169">
          <mxGeometry relative="1" as="geometry">
            <mxPoint x="3503" y="190" as="targetPoint" />
          </mxGeometry>
        </mxCell>
        <mxCell id="8Fg7yttchRCWMxdPPxp7-165" value="&lt;h3 style=&quot;font-size: 18px;&quot;&gt;&lt;font style=&quot;font-size: 18px;&quot; face=&quot;Phetsarath OT&quot;&gt;ບໍ່ຖືກ&lt;/font&gt;&lt;/h3&gt;" style="text;html=1;align=center;verticalAlign=middle;resizable=0;points=[];autosize=1;strokeColor=none;fillColor=none;strokeWidth=2;fontSize=18;fontStyle=1" vertex="1" parent="WIyWlLk6GJQsqaUBKTNV-1">
          <mxGeometry x="3635" y="565" width="60" height="70" as="geometry" />
        </mxCell>
        <mxCell id="8Fg7yttchRCWMxdPPxp7-166" value="&lt;h3 style=&quot;font-size: 18px;&quot;&gt;&lt;font style=&quot;font-size: 18px;&quot; face=&quot;Phetsarath OT&quot;&gt;ຖືກ&lt;/font&gt;&lt;/h3&gt;" style="text;html=1;align=center;verticalAlign=middle;resizable=0;points=[];autosize=1;strokeColor=none;fillColor=none;strokeWidth=2;fontSize=18;fontStyle=1" vertex="1" parent="WIyWlLk6GJQsqaUBKTNV-1">
          <mxGeometry x="3509" y="665" width="50" height="70" as="geometry" />
        </mxCell>
        <mxCell id="8Fg7yttchRCWMxdPPxp7-168" style="edgeStyle=orthogonalEdgeStyle;rounded=0;orthogonalLoop=1;jettySize=auto;html=1;exitX=1;exitY=0.5;exitDx=0;exitDy=0;entryX=1;entryY=0.5;entryDx=0;entryDy=0;entryPerimeter=0;exitPerimeter=0;strokeWidth=2;fontSize=18;fontStyle=1" edge="1" parent="WIyWlLk6GJQsqaUBKTNV-1" source="8Fg7yttchRCWMxdPPxp7-160" target="8Fg7yttchRCWMxdPPxp7-169">
          <mxGeometry relative="1" as="geometry">
            <mxPoint x="3542" y="190" as="targetPoint" />
            <Array as="points">
              <mxPoint x="3700" y="620" />
              <mxPoint x="3700" y="210" />
            </Array>
            <mxPoint x="3754" y="310" as="sourcePoint" />
          </mxGeometry>
        </mxCell>
        <mxCell id="8Fg7yttchRCWMxdPPxp7-169" value="" style="strokeWidth=2;html=1;shape=mxgraph.flowchart.start_2;whiteSpace=wrap;fontSize=18;fontStyle=1" vertex="1" parent="WIyWlLk6GJQsqaUBKTNV-1">
          <mxGeometry x="3484" y="190" width="40" height="40" as="geometry" />
        </mxCell>
        <mxCell id="8Fg7yttchRCWMxdPPxp7-170" value="&lt;font face=&quot;phetsarath ot&quot; style=&quot;font-size: 18px;&quot;&gt;&lt;span style=&quot;font-size: 18px;&quot;&gt;ສະແດງຂໍ້ມູນ&lt;/span&gt;&lt;/font&gt;" style="strokeWidth=2;html=1;shape=mxgraph.flowchart.display;whiteSpace=wrap;fontSize=18;fontStyle=1" vertex="1" parent="WIyWlLk6GJQsqaUBKTNV-1">
          <mxGeometry x="3419" y="750" width="170" height="70" as="geometry" />
        </mxCell>
        <mxCell id="8Fg7yttchRCWMxdPPxp7-171" style="edgeStyle=none;curved=1;rounded=0;orthogonalLoop=1;jettySize=auto;html=1;exitX=0.5;exitY=1;exitDx=0;exitDy=0;exitPerimeter=0;entryX=0.5;entryY=0;entryDx=0;entryDy=0;entryPerimeter=0;fontSize=18;startSize=8;endSize=8;strokeWidth=2;fontStyle=1" edge="1" parent="WIyWlLk6GJQsqaUBKTNV-1" source="8Fg7yttchRCWMxdPPxp7-170" target="8Fg7yttchRCWMxdPPxp7-162">
          <mxGeometry relative="1" as="geometry" />
        </mxCell>
        <mxCell id="8Fg7yttchRCWMxdPPxp7-172" style="edgeStyle=none;curved=1;rounded=0;orthogonalLoop=1;jettySize=auto;html=1;exitX=0.5;exitY=1;exitDx=0;exitDy=0;exitPerimeter=0;entryX=0.499;entryY=0.137;entryDx=0;entryDy=0;entryPerimeter=0;fontSize=18;startSize=8;endSize=8;strokeWidth=2;fontStyle=1" edge="1" parent="WIyWlLk6GJQsqaUBKTNV-1" source="8Fg7yttchRCWMxdPPxp7-169" target="8Fg7yttchRCWMxdPPxp7-158">
          <mxGeometry relative="1" as="geometry" />
        </mxCell>
        <UserObject label="&lt;span style=&quot;font-size: 24px;&quot; data-lucid-content=&quot;{&amp;quot;t&amp;quot;:&amp;quot;ທີຢູ່ຂອງຮ້ານ&amp;quot;,&amp;quot;m&amp;quot;:[{&amp;quot;s&amp;quot;:0,&amp;quot;n&amp;quot;:&amp;quot;p&amp;quot;,&amp;quot;v&amp;quot;:0.8916666666666667}]}&quot; data-lucid-type=&quot;application/vnd.lucid.text&quot;&gt;&lt;font face=&quot;phetsarath ot&quot;&gt;ທີຢູ່ຂອງຮ້ານ&lt;/font&gt;&lt;/span&gt;&lt;font style=&quot;font-size: 24px;&quot; face=&quot;phetsarath ot&quot;&gt;&lt;b&gt;&lt;br&gt;&lt;/b&gt;&lt;/font&gt;" link="&#xa;&lt;span data-lucid-content=&quot;{&amp;quot;t&amp;quot;:&amp;quot;ລົງທະບຽນ&amp;quot;,&amp;quot;m&amp;quot;:[{&amp;quot;s&amp;quot;:0,&amp;quot;n&amp;quot;:&amp;quot;p&amp;quot;,&amp;quot;v&amp;quot;:0.8916666666666667},{&amp;quot;s&amp;quot;:0,&amp;quot;n&amp;quot;:&amp;quot;s&amp;quot;,&amp;quot;v&amp;quot;:21.333333333333336,&amp;quot;e&amp;quot;:8}]}&quot; data-lucid-type=&quot;application/vnd.lucid.text&quot;&gt;&lt;span style=&quot;font-size:16.000000000000004px;&quot;&gt;ລົງທະບຽນ&lt;/span&gt;&lt;/span&gt;&#xa;&#xa;" id="8Fg7yttchRCWMxdPPxp7-173">
          <mxCell style="rounded=0;whiteSpace=wrap;html=1;fillColor=#dae8fc;strokeColor=#6c8ebf;" vertex="1" parent="WIyWlLk6GJQsqaUBKTNV-1">
            <mxGeometry x="3350" y="-80" width="329" height="60" as="geometry" />
          </mxCell>
        </UserObject>
        <mxCell id="8Fg7yttchRCWMxdPPxp7-175" style="edgeStyle=none;curved=1;rounded=0;orthogonalLoop=1;jettySize=auto;html=1;entryX=0.5;entryY=0;entryDx=0;entryDy=0;entryPerimeter=0;fontSize=18;startSize=8;endSize=8;strokeWidth=2;fontStyle=1" edge="1" parent="WIyWlLk6GJQsqaUBKTNV-1" source="8Fg7yttchRCWMxdPPxp7-161" target="8Fg7yttchRCWMxdPPxp7-160">
          <mxGeometry relative="1" as="geometry" />
        </mxCell>
        <mxCell id="8Fg7yttchRCWMxdPPxp7-176" style="edgeStyle=none;curved=1;rounded=0;orthogonalLoop=1;jettySize=auto;html=1;entryX=0.5;entryY=0;entryDx=0;entryDy=0;entryPerimeter=0;fontSize=18;startSize=8;endSize=8;strokeWidth=2;fontStyle=1" edge="1" parent="WIyWlLk6GJQsqaUBKTNV-1" source="8Fg7yttchRCWMxdPPxp7-160" target="8Fg7yttchRCWMxdPPxp7-170">
          <mxGeometry relative="1" as="geometry" />
        </mxCell>
        <mxCell id="8Fg7yttchRCWMxdPPxp7-177" value="&lt;h3 style=&quot;font-size: 18px;&quot;&gt;&lt;font style=&quot;font-size: 18px;&quot; face=&quot;Phetsarath OT&quot;&gt;ເລີ່ມ&lt;/font&gt;&lt;/h3&gt;" style="strokeWidth=2;html=1;shape=mxgraph.flowchart.terminator;whiteSpace=wrap;fontSize=18;fontStyle=1" vertex="1" parent="WIyWlLk6GJQsqaUBKTNV-1">
          <mxGeometry x="4064" y="90" width="100" height="60" as="geometry" />
        </mxCell>
        <mxCell id="8Fg7yttchRCWMxdPPxp7-180" value="&lt;h3 style=&quot;font-size: 18px;&quot;&gt;&lt;span style=&quot;font-size: 18px;&quot; data-lucid-content=&quot;{&amp;quot;t&amp;quot;:&amp;quot;ກວດສອບຮ້ານທີຢູ່ໃກ້ຄຽງ&amp;quot;,&amp;quot;m&amp;quot;:[{&amp;quot;s&amp;quot;:0,&amp;quot;n&amp;quot;:&amp;quot;s&amp;quot;,&amp;quot;v&amp;quot;:48.88888888888889,&amp;quot;e&amp;quot;:21},{&amp;quot;s&amp;quot;:0,&amp;quot;n&amp;quot;:&amp;quot;fsp&amp;quot;,&amp;quot;v&amp;quot;:&amp;quot;ss_presetShapeStyle1_textStyle&amp;quot;,&amp;quot;e&amp;quot;:21},{&amp;quot;s&amp;quot;:0,&amp;quot;n&amp;quot;:&amp;quot;fsp2&amp;quot;,&amp;quot;v&amp;quot;:&amp;quot;ss_presetShapeStyle1_textStyle&amp;quot;,&amp;quot;e&amp;quot;:21}]}&quot; data-lucid-type=&quot;application/vnd.lucid.text&quot;&gt;&lt;font style=&quot;font-size: 18px;&quot; face=&quot;phetsarath ot&quot;&gt;ກວດສອບຮ້ານທີຢູ່ໃກ້ຄຽງ&lt;/font&gt;&lt;/span&gt;&lt;br style=&quot;font-size: 18px;&quot;&gt;&lt;/h3&gt;" style="strokeWidth=2;html=1;shape=mxgraph.flowchart.decision;whiteSpace=wrap;fontSize=18;fontStyle=1" vertex="1" parent="WIyWlLk6GJQsqaUBKTNV-1">
          <mxGeometry x="3989" y="436.25" width="250" height="100" as="geometry" />
        </mxCell>
        <mxCell id="8Fg7yttchRCWMxdPPxp7-181" value="&lt;h3 style=&quot;font-size: 18px;&quot;&gt;&lt;span style=&quot;font-size: 18px;&quot; data-lucid-content=&quot;{&amp;quot;t&amp;quot;:&amp;quot;ຄົ້ນຫາຮ້ານສ້່ອມແປງ,ຮ້ານແກ່ລົດ&amp;quot;,&amp;quot;m&amp;quot;:[{&amp;quot;s&amp;quot;:0,&amp;quot;n&amp;quot;:&amp;quot;s&amp;quot;,&amp;quot;v&amp;quot;:53.333333333333336,&amp;quot;e&amp;quot;:29},{&amp;quot;s&amp;quot;:0,&amp;quot;n&amp;quot;:&amp;quot;fsp&amp;quot;,&amp;quot;v&amp;quot;:&amp;quot;ss_presetShapeStyle1_textStyle&amp;quot;,&amp;quot;e&amp;quot;:29},{&amp;quot;s&amp;quot;:0,&amp;quot;n&amp;quot;:&amp;quot;fsp2&amp;quot;,&amp;quot;v&amp;quot;:&amp;quot;ss_presetShapeStyle1_textStyle&amp;quot;,&amp;quot;e&amp;quot;:29}]}&quot; data-lucid-type=&quot;application/vnd.lucid.text&quot;&gt;&lt;font style=&quot;font-size: 18px;&quot; face=&quot;phetsarath ot&quot;&gt;ຄົ້ນຫາຮ້ານສ້ອມແປງ,ຮ້ານແກ່ລົດ&lt;/font&gt;&lt;/span&gt;&lt;br style=&quot;font-size: 18px;&quot;&gt;&lt;/h3&gt;" style="rounded=1;whiteSpace=wrap;html=1;absoluteArcSize=1;arcSize=14;strokeWidth=2;fontSize=18;fontStyle=1" vertex="1" parent="WIyWlLk6GJQsqaUBKTNV-1">
          <mxGeometry x="4006.5" y="280" width="215" height="65" as="geometry" />
        </mxCell>
        <mxCell id="8Fg7yttchRCWMxdPPxp7-182" value="&lt;h3 style=&quot;font-size: 18px;&quot;&gt;&lt;font style=&quot;font-size: 18px;&quot; face=&quot;Phetsarath OT&quot;&gt;&lt;span style=&quot;font-size: 18px;&quot;&gt;ສິ້ນສຸດ&lt;/span&gt;&lt;/font&gt;&lt;/h3&gt;" style="strokeWidth=2;html=1;shape=mxgraph.flowchart.terminator;whiteSpace=wrap;fontSize=18;fontStyle=1" vertex="1" parent="WIyWlLk6GJQsqaUBKTNV-1">
          <mxGeometry x="4064" y="722.5" width="100" height="60" as="geometry" />
        </mxCell>
        <mxCell id="8Fg7yttchRCWMxdPPxp7-183" style="rounded=0;orthogonalLoop=1;jettySize=auto;html=1;entryX=0.5;entryY=0;entryDx=0;entryDy=0;entryPerimeter=0;strokeWidth=2;fontSize=18;fontStyle=1" edge="1" parent="WIyWlLk6GJQsqaUBKTNV-1" source="8Fg7yttchRCWMxdPPxp7-177" target="8Fg7yttchRCWMxdPPxp7-187">
          <mxGeometry relative="1" as="geometry">
            <mxPoint x="4113" y="190" as="targetPoint" />
          </mxGeometry>
        </mxCell>
        <mxCell id="8Fg7yttchRCWMxdPPxp7-184" value="&lt;h3 style=&quot;font-size: 18px;&quot;&gt;&lt;font style=&quot;font-size: 18px;&quot; face=&quot;Phetsarath OT&quot;&gt;ບໍ່ຖືກ&lt;/font&gt;&lt;/h3&gt;" style="text;html=1;align=center;verticalAlign=middle;resizable=0;points=[];autosize=1;strokeColor=none;fillColor=none;strokeWidth=2;fontSize=18;fontStyle=1" vertex="1" parent="WIyWlLk6GJQsqaUBKTNV-1">
          <mxGeometry x="4234" y="425" width="60" height="70" as="geometry" />
        </mxCell>
        <mxCell id="8Fg7yttchRCWMxdPPxp7-185" value="&lt;h3 style=&quot;font-size: 18px;&quot;&gt;&lt;font style=&quot;font-size: 18px;&quot; face=&quot;Phetsarath OT&quot;&gt;ຖືກ&lt;/font&gt;&lt;/h3&gt;" style="text;html=1;align=center;verticalAlign=middle;resizable=0;points=[];autosize=1;strokeColor=none;fillColor=none;strokeWidth=2;fontSize=18;fontStyle=1" vertex="1" parent="WIyWlLk6GJQsqaUBKTNV-1">
          <mxGeometry x="4119" y="507.5" width="50" height="70" as="geometry" />
        </mxCell>
        <mxCell id="8Fg7yttchRCWMxdPPxp7-186" style="edgeStyle=orthogonalEdgeStyle;rounded=0;orthogonalLoop=1;jettySize=auto;html=1;exitX=1;exitY=0.5;exitDx=0;exitDy=0;entryX=1;entryY=0.5;entryDx=0;entryDy=0;entryPerimeter=0;exitPerimeter=0;strokeWidth=2;fontSize=18;fontStyle=1" edge="1" parent="WIyWlLk6GJQsqaUBKTNV-1" source="8Fg7yttchRCWMxdPPxp7-180" target="8Fg7yttchRCWMxdPPxp7-187">
          <mxGeometry relative="1" as="geometry">
            <mxPoint x="4152" y="190" as="targetPoint" />
            <Array as="points">
              <mxPoint x="4310" y="486" />
              <mxPoint x="4310" y="210" />
            </Array>
            <mxPoint x="4364" y="310" as="sourcePoint" />
          </mxGeometry>
        </mxCell>
        <mxCell id="8Fg7yttchRCWMxdPPxp7-195" style="edgeStyle=none;curved=1;rounded=0;orthogonalLoop=1;jettySize=auto;html=1;entryX=0.5;entryY=0;entryDx=0;entryDy=0;fontSize=18;startSize=8;endSize=8;strokeWidth=2;fontStyle=1" edge="1" parent="WIyWlLk6GJQsqaUBKTNV-1" source="8Fg7yttchRCWMxdPPxp7-187" target="8Fg7yttchRCWMxdPPxp7-181">
          <mxGeometry relative="1" as="geometry" />
        </mxCell>
        <mxCell id="8Fg7yttchRCWMxdPPxp7-187" value="" style="strokeWidth=2;html=1;shape=mxgraph.flowchart.start_2;whiteSpace=wrap;fontSize=18;fontStyle=1" vertex="1" parent="WIyWlLk6GJQsqaUBKTNV-1">
          <mxGeometry x="4094" y="190" width="40" height="40" as="geometry" />
        </mxCell>
        <mxCell id="8Fg7yttchRCWMxdPPxp7-188" value="&lt;font face=&quot;phetsarath ot&quot; style=&quot;font-size: 18px;&quot;&gt;&lt;span style=&quot;font-size: 18px;&quot;&gt;ສະແດງຂໍ້ມູນ&lt;/span&gt;&lt;/font&gt;" style="strokeWidth=2;html=1;shape=mxgraph.flowchart.display;whiteSpace=wrap;fontSize=18;fontStyle=1" vertex="1" parent="WIyWlLk6GJQsqaUBKTNV-1">
          <mxGeometry x="4029" y="592.5" width="170" height="70" as="geometry" />
        </mxCell>
        <mxCell id="8Fg7yttchRCWMxdPPxp7-189" style="edgeStyle=none;curved=1;rounded=0;orthogonalLoop=1;jettySize=auto;html=1;exitX=0.5;exitY=1;exitDx=0;exitDy=0;exitPerimeter=0;entryX=0.5;entryY=0;entryDx=0;entryDy=0;entryPerimeter=0;fontSize=18;startSize=8;endSize=8;strokeWidth=2;fontStyle=1" edge="1" parent="WIyWlLk6GJQsqaUBKTNV-1" source="8Fg7yttchRCWMxdPPxp7-188" target="8Fg7yttchRCWMxdPPxp7-182">
          <mxGeometry relative="1" as="geometry" />
        </mxCell>
        <UserObject label="&lt;span data-lucid-content=&quot;{&amp;quot;t&amp;quot;:&amp;quot;ຄົ້ນຫາຮ້ານ&amp;quot;,&amp;quot;m&amp;quot;:[{&amp;quot;s&amp;quot;:0,&amp;quot;n&amp;quot;:&amp;quot;p&amp;quot;,&amp;quot;v&amp;quot;:0.8916666666666667},{&amp;quot;s&amp;quot;:0,&amp;quot;n&amp;quot;:&amp;quot;s&amp;quot;,&amp;quot;v&amp;quot;:21.333333333333336,&amp;quot;e&amp;quot;:10}]}&quot; data-lucid-type=&quot;application/vnd.lucid.text&quot;&gt;&lt;font style=&quot;font-size: 24px;&quot; face=&quot;phetsarath ot&quot;&gt;ຄົ້ນຫາຮ້ານ&lt;/font&gt;&lt;/span&gt;&lt;font style=&quot;font-size: 24px;&quot; face=&quot;phetsarath ot&quot;&gt;&lt;b&gt;&lt;br&gt;&lt;/b&gt;&lt;/font&gt;" link="&#xa;&lt;span data-lucid-content=&quot;{&amp;quot;t&amp;quot;:&amp;quot;ລົງທະບຽນ&amp;quot;,&amp;quot;m&amp;quot;:[{&amp;quot;s&amp;quot;:0,&amp;quot;n&amp;quot;:&amp;quot;p&amp;quot;,&amp;quot;v&amp;quot;:0.8916666666666667},{&amp;quot;s&amp;quot;:0,&amp;quot;n&amp;quot;:&amp;quot;s&amp;quot;,&amp;quot;v&amp;quot;:21.333333333333336,&amp;quot;e&amp;quot;:8}]}&quot; data-lucid-type=&quot;application/vnd.lucid.text&quot;&gt;&lt;span style=&quot;font-size:16.000000000000004px;&quot;&gt;ລົງທະບຽນ&lt;/span&gt;&lt;/span&gt;&#xa;&#xa;" id="8Fg7yttchRCWMxdPPxp7-191">
          <mxCell style="rounded=0;whiteSpace=wrap;html=1;fillColor=#dae8fc;strokeColor=#6c8ebf;" vertex="1" parent="WIyWlLk6GJQsqaUBKTNV-1">
            <mxGeometry x="3960" y="-80" width="329" height="60" as="geometry" />
          </mxCell>
        </UserObject>
        <mxCell id="8Fg7yttchRCWMxdPPxp7-196" style="edgeStyle=none;curved=1;rounded=0;orthogonalLoop=1;jettySize=auto;html=1;entryX=0.5;entryY=0;entryDx=0;entryDy=0;entryPerimeter=0;fontSize=18;startSize=8;endSize=8;strokeWidth=2;fontStyle=1" edge="1" parent="WIyWlLk6GJQsqaUBKTNV-1" source="8Fg7yttchRCWMxdPPxp7-181" target="8Fg7yttchRCWMxdPPxp7-180">
          <mxGeometry relative="1" as="geometry" />
        </mxCell>
        <mxCell id="8Fg7yttchRCWMxdPPxp7-197" style="edgeStyle=none;curved=1;rounded=0;orthogonalLoop=1;jettySize=auto;html=1;exitX=0.5;exitY=1;exitDx=0;exitDy=0;exitPerimeter=0;entryX=0.5;entryY=0;entryDx=0;entryDy=0;entryPerimeter=0;fontSize=18;startSize=8;endSize=8;strokeWidth=2;fontStyle=1" edge="1" parent="WIyWlLk6GJQsqaUBKTNV-1" source="8Fg7yttchRCWMxdPPxp7-180" target="8Fg7yttchRCWMxdPPxp7-188">
          <mxGeometry relative="1" as="geometry" />
        </mxCell>
        <mxCell id="8Fg7yttchRCWMxdPPxp7-198" value="&lt;h3 style=&quot;font-size: 18px;&quot;&gt;&lt;font style=&quot;font-size: 18px;&quot; face=&quot;Phetsarath OT&quot;&gt;ເລີ່ມ&lt;/font&gt;&lt;/h3&gt;" style="strokeWidth=2;html=1;shape=mxgraph.flowchart.terminator;whiteSpace=wrap;fontSize=18;fontStyle=1" vertex="1" parent="WIyWlLk6GJQsqaUBKTNV-1">
          <mxGeometry x="4644" y="87.5" width="100" height="60" as="geometry" />
        </mxCell>
        <mxCell id="8Fg7yttchRCWMxdPPxp7-199" value="&lt;h3 style=&quot;font-size: 18px;&quot;&gt;&lt;span style=&quot;font-size: 18px;&quot; data-lucid-content=&quot;{&amp;quot;t&amp;quot;:&amp;quot;ກວດສອບຮ້ານ ສະຖານະ = ເປີດ&amp;quot;,&amp;quot;m&amp;quot;:[{&amp;quot;s&amp;quot;:0,&amp;quot;n&amp;quot;:&amp;quot;fsp&amp;quot;,&amp;quot;v&amp;quot;:&amp;quot;ss_presetShapeStyle1_textStyle&amp;quot;,&amp;quot;e&amp;quot;:24},{&amp;quot;s&amp;quot;:0,&amp;quot;n&amp;quot;:&amp;quot;fsp2&amp;quot;,&amp;quot;v&amp;quot;:&amp;quot;ss_presetShapeStyle1_textStyle&amp;quot;,&amp;quot;e&amp;quot;:24},{&amp;quot;s&amp;quot;:0,&amp;quot;n&amp;quot;:&amp;quot;s&amp;quot;,&amp;quot;v&amp;quot;:48.88888888888889,&amp;quot;e&amp;quot;:24}]}&quot; data-lucid-type=&quot;application/vnd.lucid.text&quot;&gt;&lt;font style=&quot;font-size: 18px;&quot; face=&quot;phetsarath ot&quot;&gt;ກວດສອບຮ້ານ ສະຖານະ = ເປີດ&lt;/font&gt;&lt;/span&gt;&lt;br style=&quot;font-size: 18px;&quot;&gt;&lt;/h3&gt;" style="strokeWidth=2;html=1;shape=mxgraph.flowchart.decision;whiteSpace=wrap;fontSize=18;fontStyle=1" vertex="1" parent="WIyWlLk6GJQsqaUBKTNV-1">
          <mxGeometry x="4569" y="433.75" width="250" height="100" as="geometry" />
        </mxCell>
        <mxCell id="8Fg7yttchRCWMxdPPxp7-200" value="&lt;h3 style=&quot;font-size: 18px;&quot;&gt;&lt;span style=&quot;font-size: 18px;&quot; data-lucid-content=&quot;{&amp;quot;t&amp;quot;:&amp;quot;ເລືອກຮ້ານສ້່ອມແປງ,ຮ້ານແກ້ລົດ&amp;quot;,&amp;quot;m&amp;quot;:[{&amp;quot;s&amp;quot;:0,&amp;quot;n&amp;quot;:&amp;quot;s&amp;quot;,&amp;quot;v&amp;quot;:53.333333333333336,&amp;quot;e&amp;quot;:28},{&amp;quot;s&amp;quot;:0,&amp;quot;n&amp;quot;:&amp;quot;fsp&amp;quot;,&amp;quot;v&amp;quot;:&amp;quot;ss_presetShapeStyle1_textStyle&amp;quot;,&amp;quot;e&amp;quot;:28},{&amp;quot;s&amp;quot;:0,&amp;quot;n&amp;quot;:&amp;quot;fsp2&amp;quot;,&amp;quot;v&amp;quot;:&amp;quot;ss_presetShapeStyle1_textStyle&amp;quot;,&amp;quot;e&amp;quot;:28}]}&quot; data-lucid-type=&quot;application/vnd.lucid.text&quot;&gt;&lt;font face=&quot;phetsarath ot&quot; style=&quot;font-size: 18px;&quot;&gt;ເລືອກຮ້ານສ້ອມແປງ,ຮ້ານແກ່ລົດ&lt;/font&gt;&lt;/span&gt;&lt;br style=&quot;font-size: 18px;&quot;&gt;&lt;/h3&gt;" style="rounded=1;whiteSpace=wrap;html=1;absoluteArcSize=1;arcSize=14;strokeWidth=2;fontSize=18;fontStyle=1" vertex="1" parent="WIyWlLk6GJQsqaUBKTNV-1">
          <mxGeometry x="4586.5" y="277.5" width="215" height="65" as="geometry" />
        </mxCell>
        <mxCell id="8Fg7yttchRCWMxdPPxp7-201" value="&lt;h3 style=&quot;font-size: 18px;&quot;&gt;&lt;font style=&quot;font-size: 18px;&quot; face=&quot;Phetsarath OT&quot;&gt;&lt;span style=&quot;font-size: 18px;&quot;&gt;ສິ້ນສຸດ&lt;/span&gt;&lt;/font&gt;&lt;/h3&gt;" style="strokeWidth=2;html=1;shape=mxgraph.flowchart.terminator;whiteSpace=wrap;fontSize=18;fontStyle=1" vertex="1" parent="WIyWlLk6GJQsqaUBKTNV-1">
          <mxGeometry x="4641.5" y="835" width="100" height="60" as="geometry" />
        </mxCell>
        <mxCell id="8Fg7yttchRCWMxdPPxp7-202" style="rounded=0;orthogonalLoop=1;jettySize=auto;html=1;entryX=0.5;entryY=0;entryDx=0;entryDy=0;entryPerimeter=0;strokeWidth=2;fontSize=18;fontStyle=1" edge="1" parent="WIyWlLk6GJQsqaUBKTNV-1" source="8Fg7yttchRCWMxdPPxp7-198" target="8Fg7yttchRCWMxdPPxp7-207">
          <mxGeometry relative="1" as="geometry">
            <mxPoint x="4693" y="187.5" as="targetPoint" />
          </mxGeometry>
        </mxCell>
        <mxCell id="8Fg7yttchRCWMxdPPxp7-203" value="&lt;h3 style=&quot;font-size: 18px;&quot;&gt;&lt;font style=&quot;font-size: 18px;&quot; face=&quot;Phetsarath OT&quot;&gt;ບໍ່ຖືກ&lt;/font&gt;&lt;/h3&gt;" style="text;html=1;align=center;verticalAlign=middle;resizable=0;points=[];autosize=1;strokeColor=none;fillColor=none;strokeWidth=2;fontSize=18;fontStyle=1" vertex="1" parent="WIyWlLk6GJQsqaUBKTNV-1">
          <mxGeometry x="4814" y="422.5" width="60" height="70" as="geometry" />
        </mxCell>
        <mxCell id="8Fg7yttchRCWMxdPPxp7-204" value="&lt;h3 style=&quot;font-size: 18px;&quot;&gt;&lt;font style=&quot;font-size: 18px;&quot; face=&quot;Phetsarath OT&quot;&gt;ຖືກ&lt;/font&gt;&lt;/h3&gt;" style="text;html=1;align=center;verticalAlign=middle;resizable=0;points=[];autosize=1;strokeColor=none;fillColor=none;strokeWidth=2;fontSize=18;fontStyle=1" vertex="1" parent="WIyWlLk6GJQsqaUBKTNV-1">
          <mxGeometry x="4699" y="505" width="50" height="70" as="geometry" />
        </mxCell>
        <mxCell id="8Fg7yttchRCWMxdPPxp7-205" style="edgeStyle=orthogonalEdgeStyle;rounded=0;orthogonalLoop=1;jettySize=auto;html=1;exitX=1;exitY=0.5;exitDx=0;exitDy=0;entryX=1;entryY=0.5;entryDx=0;entryDy=0;entryPerimeter=0;exitPerimeter=0;strokeWidth=2;fontSize=18;fontStyle=1" edge="1" parent="WIyWlLk6GJQsqaUBKTNV-1" source="8Fg7yttchRCWMxdPPxp7-199" target="8Fg7yttchRCWMxdPPxp7-207">
          <mxGeometry relative="1" as="geometry">
            <mxPoint x="4732" y="187.5" as="targetPoint" />
            <Array as="points">
              <mxPoint x="4890" y="483.5" />
              <mxPoint x="4890" y="207.5" />
            </Array>
            <mxPoint x="4944" y="307.5" as="sourcePoint" />
          </mxGeometry>
        </mxCell>
        <mxCell id="8Fg7yttchRCWMxdPPxp7-206" style="edgeStyle=none;curved=1;rounded=0;orthogonalLoop=1;jettySize=auto;html=1;entryX=0.5;entryY=0;entryDx=0;entryDy=0;fontSize=18;startSize=8;endSize=8;strokeWidth=2;fontStyle=1" edge="1" parent="WIyWlLk6GJQsqaUBKTNV-1" source="8Fg7yttchRCWMxdPPxp7-207" target="8Fg7yttchRCWMxdPPxp7-200">
          <mxGeometry relative="1" as="geometry" />
        </mxCell>
        <mxCell id="8Fg7yttchRCWMxdPPxp7-207" value="" style="strokeWidth=2;html=1;shape=mxgraph.flowchart.start_2;whiteSpace=wrap;fontSize=18;fontStyle=1" vertex="1" parent="WIyWlLk6GJQsqaUBKTNV-1">
          <mxGeometry x="4674" y="187.5" width="40" height="40" as="geometry" />
        </mxCell>
        <mxCell id="8Fg7yttchRCWMxdPPxp7-208" value="&lt;span style=&quot;font-size: 18px;&quot; data-lucid-content=&quot;{&amp;quot;t&amp;quot;:&amp;quot;ສະແດງຂໍ້ມູນຮ້ອງຂໍ&amp;quot;,&amp;quot;m&amp;quot;:[{&amp;quot;s&amp;quot;:0,&amp;quot;n&amp;quot;:&amp;quot;a&amp;quot;,&amp;quot;v&amp;quot;:&amp;quot;left&amp;quot;},{&amp;quot;s&amp;quot;:0,&amp;quot;n&amp;quot;:&amp;quot;s&amp;quot;,&amp;quot;v&amp;quot;:53.333333333333336,&amp;quot;e&amp;quot;:17}]}&quot; data-lucid-type=&quot;application/vnd.lucid.text&quot;&gt;&lt;font face=&quot;phetsarath ot&quot; style=&quot;font-size: 18px;&quot;&gt;&lt;span style=&quot;font-size: 18px;&quot;&gt;ສະແດງຂໍ້ມູນຮ້ອງຂໍ&lt;/span&gt;&lt;/font&gt;&lt;/span&gt;" style="strokeWidth=2;html=1;shape=mxgraph.flowchart.display;whiteSpace=wrap;fontSize=18;fontStyle=1" vertex="1" parent="WIyWlLk6GJQsqaUBKTNV-1">
          <mxGeometry x="4606.5" y="705" width="170" height="70" as="geometry" />
        </mxCell>
        <mxCell id="8Fg7yttchRCWMxdPPxp7-209" style="edgeStyle=none;curved=1;rounded=0;orthogonalLoop=1;jettySize=auto;html=1;exitX=0.5;exitY=1;exitDx=0;exitDy=0;exitPerimeter=0;entryX=0.5;entryY=0;entryDx=0;entryDy=0;entryPerimeter=0;fontSize=18;startSize=8;endSize=8;strokeWidth=2;fontStyle=1" edge="1" parent="WIyWlLk6GJQsqaUBKTNV-1" source="8Fg7yttchRCWMxdPPxp7-208" target="8Fg7yttchRCWMxdPPxp7-201">
          <mxGeometry relative="1" as="geometry" />
        </mxCell>
        <UserObject label="&lt;span data-lucid-content=&quot;{&amp;quot;t&amp;quot;:&amp;quot;ການຮ້ອງຂໍບໍລິການສົ້ອມແປງ ແລະ ບໍລິການແກ່ລົດ&amp;quot;,&amp;quot;m&amp;quot;:[{&amp;quot;s&amp;quot;:0,&amp;quot;n&amp;quot;:&amp;quot;p&amp;quot;,&amp;quot;v&amp;quot;:0.8916666666666667},{&amp;quot;s&amp;quot;:0,&amp;quot;n&amp;quot;:&amp;quot;b&amp;quot;,&amp;quot;v&amp;quot;:true,&amp;quot;e&amp;quot;:42}]}&quot; data-lucid-type=&quot;application/vnd.lucid.text&quot;&gt;&lt;span style=&quot;font-weight:bold;&quot;&gt;&lt;font style=&quot;font-size: 24px;&quot; face=&quot;phetsarath ot&quot;&gt;ການຮ້ອງຂໍບໍລິການສົ້ອມແປງ ແລະ ບໍລິການແກ່ລົດ&lt;/font&gt;&lt;/span&gt;&lt;/span&gt;&lt;font style=&quot;font-size: 24px;&quot; face=&quot;phetsarath ot&quot;&gt;&lt;b&gt;&lt;br&gt;&lt;/b&gt;&lt;/font&gt;" link="&#xa;&lt;span data-lucid-content=&quot;{&amp;quot;t&amp;quot;:&amp;quot;ລົງທະບຽນ&amp;quot;,&amp;quot;m&amp;quot;:[{&amp;quot;s&amp;quot;:0,&amp;quot;n&amp;quot;:&amp;quot;p&amp;quot;,&amp;quot;v&amp;quot;:0.8916666666666667},{&amp;quot;s&amp;quot;:0,&amp;quot;n&amp;quot;:&amp;quot;s&amp;quot;,&amp;quot;v&amp;quot;:21.333333333333336,&amp;quot;e&amp;quot;:8}]}&quot; data-lucid-type=&quot;application/vnd.lucid.text&quot;&gt;&lt;span style=&quot;font-size:16.000000000000004px;&quot;&gt;ລົງທະບຽນ&lt;/span&gt;&lt;/span&gt;&#xa;&#xa;" id="8Fg7yttchRCWMxdPPxp7-210">
          <mxCell style="rounded=0;whiteSpace=wrap;html=1;fillColor=#dae8fc;strokeColor=#6c8ebf;" vertex="1" parent="WIyWlLk6GJQsqaUBKTNV-1">
            <mxGeometry x="4540" y="-82.5" width="329" height="60" as="geometry" />
          </mxCell>
        </UserObject>
        <mxCell id="8Fg7yttchRCWMxdPPxp7-211" style="edgeStyle=none;curved=1;rounded=0;orthogonalLoop=1;jettySize=auto;html=1;entryX=0.5;entryY=0;entryDx=0;entryDy=0;entryPerimeter=0;fontSize=18;startSize=8;endSize=8;strokeWidth=2;fontStyle=1" edge="1" parent="WIyWlLk6GJQsqaUBKTNV-1" source="8Fg7yttchRCWMxdPPxp7-200" target="8Fg7yttchRCWMxdPPxp7-199">
          <mxGeometry relative="1" as="geometry" />
        </mxCell>
        <mxCell id="8Fg7yttchRCWMxdPPxp7-213" value="&lt;h3 style=&quot;font-size: 18px;&quot;&gt;&lt;span style=&quot;font-size: 18px;&quot; data-lucid-content=&quot;{&amp;quot;t&amp;quot;:&amp;quot;ປ້ອນຂໍ້ມູນຮ້ອງຂໍ&amp;quot;,&amp;quot;m&amp;quot;:[{&amp;quot;s&amp;quot;:0,&amp;quot;n&amp;quot;:&amp;quot;a&amp;quot;,&amp;quot;v&amp;quot;:&amp;quot;left&amp;quot;},{&amp;quot;s&amp;quot;:0,&amp;quot;n&amp;quot;:&amp;quot;fsp&amp;quot;,&amp;quot;v&amp;quot;:&amp;quot;ss_presetShapeStyle1_textStyle&amp;quot;,&amp;quot;e&amp;quot;:16},{&amp;quot;s&amp;quot;:0,&amp;quot;n&amp;quot;:&amp;quot;fsp2&amp;quot;,&amp;quot;v&amp;quot;:&amp;quot;ss_presetShapeStyle1_textStyle&amp;quot;,&amp;quot;e&amp;quot;:16},{&amp;quot;s&amp;quot;:0,&amp;quot;n&amp;quot;:&amp;quot;s&amp;quot;,&amp;quot;v&amp;quot;:53.333333333333336,&amp;quot;e&amp;quot;:16}]}&quot; data-lucid-type=&quot;application/vnd.lucid.text&quot;&gt;&lt;font style=&quot;font-size: 18px;&quot; face=&quot;phetsarath ot&quot;&gt;ປ້ອນຂໍ້ມູນຮ້ອງຂໍ&lt;/font&gt;&lt;/span&gt;&lt;br style=&quot;font-size: 18px;&quot;&gt;&lt;/h3&gt;" style="html=1;strokeWidth=2;shape=manualInput;whiteSpace=wrap;rounded=1;size=26;arcSize=11;fontSize=18;fontStyle=1" vertex="1" parent="WIyWlLk6GJQsqaUBKTNV-1">
          <mxGeometry x="4581.5" y="585" width="220" height="80" as="geometry" />
        </mxCell>
        <mxCell id="8Fg7yttchRCWMxdPPxp7-214" style="edgeStyle=none;curved=1;rounded=0;orthogonalLoop=1;jettySize=auto;html=1;entryX=0.506;entryY=0.156;entryDx=0;entryDy=0;entryPerimeter=0;fontSize=18;startSize=8;endSize=8;strokeWidth=2;fontStyle=1" edge="1" parent="WIyWlLk6GJQsqaUBKTNV-1" source="8Fg7yttchRCWMxdPPxp7-199" target="8Fg7yttchRCWMxdPPxp7-213">
          <mxGeometry relative="1" as="geometry" />
        </mxCell>
        <mxCell id="8Fg7yttchRCWMxdPPxp7-217" style="edgeStyle=none;curved=1;rounded=0;orthogonalLoop=1;jettySize=auto;html=1;entryX=0.5;entryY=0;entryDx=0;entryDy=0;entryPerimeter=0;fontSize=18;startSize=8;endSize=8;strokeWidth=2;fontStyle=1" edge="1" parent="WIyWlLk6GJQsqaUBKTNV-1" source="8Fg7yttchRCWMxdPPxp7-213" target="8Fg7yttchRCWMxdPPxp7-208">
          <mxGeometry relative="1" as="geometry" />
        </mxCell>
        <mxCell id="8Fg7yttchRCWMxdPPxp7-218" value="&lt;h3 style=&quot;font-size: 18px;&quot;&gt;&lt;font style=&quot;font-size: 18px;&quot; face=&quot;Phetsarath OT&quot;&gt;ເລີ່ມ&lt;/font&gt;&lt;/h3&gt;" style="strokeWidth=2;html=1;shape=mxgraph.flowchart.terminator;whiteSpace=wrap;fontSize=18;fontStyle=1" vertex="1" parent="WIyWlLk6GJQsqaUBKTNV-1">
          <mxGeometry x="5294" y="80" width="100" height="60" as="geometry" />
        </mxCell>
        <mxCell id="8Fg7yttchRCWMxdPPxp7-219" value="&lt;h3 style=&quot;font-size: 18px;&quot;&gt;&lt;span style=&quot;font-size: 18px;&quot; data-lucid-content=&quot;{&amp;quot;t&amp;quot;:&amp;quot;ປ່ຽນການຮ້ອງຂໍ&amp;quot;,&amp;quot;m&amp;quot;:[{&amp;quot;s&amp;quot;:0,&amp;quot;n&amp;quot;:&amp;quot;fsp&amp;quot;,&amp;quot;v&amp;quot;:&amp;quot;ss_presetShapeStyle1_textStyle&amp;quot;,&amp;quot;e&amp;quot;:13},{&amp;quot;s&amp;quot;:0,&amp;quot;n&amp;quot;:&amp;quot;fsp2&amp;quot;,&amp;quot;v&amp;quot;:&amp;quot;ss_presetShapeStyle1_textStyle&amp;quot;,&amp;quot;e&amp;quot;:13},{&amp;quot;s&amp;quot;:0,&amp;quot;n&amp;quot;:&amp;quot;s&amp;quot;,&amp;quot;v&amp;quot;:48.88888888888889,&amp;quot;e&amp;quot;:11},{&amp;quot;s&amp;quot;:11,&amp;quot;n&amp;quot;:&amp;quot;s&amp;quot;,&amp;quot;v&amp;quot;:53.333333333333336,&amp;quot;e&amp;quot;:13}]}&quot; data-lucid-type=&quot;application/vnd.lucid.text&quot;&gt;&lt;font style=&quot;font-size: 18px;&quot; face=&quot;phetsarath ot&quot;&gt;&lt;span style=&quot;font-size: 18px;&quot;&gt;ປ່ຽນການຮ້ອງ&lt;/span&gt;&lt;span style=&quot;font-size: 18px;&quot;&gt;ຂໍ&lt;/span&gt;&lt;/font&gt;&lt;/span&gt;&lt;br style=&quot;font-size: 18px;&quot;&gt;&lt;/h3&gt;" style="strokeWidth=2;html=1;shape=mxgraph.flowchart.decision;whiteSpace=wrap;fontSize=18;fontStyle=1" vertex="1" parent="WIyWlLk6GJQsqaUBKTNV-1">
          <mxGeometry x="5219" y="378.14" width="250" height="100" as="geometry" />
        </mxCell>
        <mxCell id="8Fg7yttchRCWMxdPPxp7-221" value="&lt;h3 style=&quot;font-size: 18px;&quot;&gt;&lt;font style=&quot;font-size: 18px;&quot; face=&quot;Phetsarath OT&quot;&gt;&lt;span style=&quot;font-size: 18px;&quot;&gt;ສິ້ນສຸດ&lt;/span&gt;&lt;/font&gt;&lt;/h3&gt;" style="strokeWidth=2;html=1;shape=mxgraph.flowchart.terminator;whiteSpace=wrap;fontSize=18;fontStyle=1" vertex="1" parent="WIyWlLk6GJQsqaUBKTNV-1">
          <mxGeometry x="5291.5" y="827.5" width="100" height="60" as="geometry" />
        </mxCell>
        <mxCell id="8Fg7yttchRCWMxdPPxp7-223" value="&lt;h3 style=&quot;font-size: 18px;&quot;&gt;&lt;font style=&quot;font-size: 18px;&quot; face=&quot;Phetsarath OT&quot;&gt;ບໍ່ຖືກ&lt;/font&gt;&lt;/h3&gt;" style="text;html=1;align=center;verticalAlign=middle;resizable=0;points=[];autosize=1;strokeColor=none;fillColor=none;strokeWidth=2;fontSize=18;fontStyle=1" vertex="1" parent="WIyWlLk6GJQsqaUBKTNV-1">
          <mxGeometry x="5464" y="372.5" width="60" height="70" as="geometry" />
        </mxCell>
        <mxCell id="8Fg7yttchRCWMxdPPxp7-224" value="&lt;h3 style=&quot;font-size: 18px;&quot;&gt;&lt;font style=&quot;font-size: 18px;&quot; face=&quot;Phetsarath OT&quot;&gt;ຖືກ&lt;/font&gt;&lt;/h3&gt;" style="text;html=1;align=center;verticalAlign=middle;resizable=0;points=[];autosize=1;strokeColor=none;fillColor=none;strokeWidth=2;fontSize=18;fontStyle=1" vertex="1" parent="WIyWlLk6GJQsqaUBKTNV-1">
          <mxGeometry x="5165" y="373.14" width="50" height="70" as="geometry" />
        </mxCell>
        <mxCell id="8Fg7yttchRCWMxdPPxp7-227" value="" style="strokeWidth=2;html=1;shape=mxgraph.flowchart.start_2;whiteSpace=wrap;fontSize=18;fontStyle=1" vertex="1" parent="WIyWlLk6GJQsqaUBKTNV-1">
          <mxGeometry x="5321.5" y="742.5" width="40" height="40" as="geometry" />
        </mxCell>
        <mxCell id="8Fg7yttchRCWMxdPPxp7-228" value="&lt;span style=&quot;font-size: 18px;&quot; data-lucid-content=&quot;{&amp;quot;t&amp;quot;:&amp;quot;ສະແດງຂໍ້ມູນຍົກເລິກການຮ້ອງຂໍ&amp;quot;,&amp;quot;m&amp;quot;:[{&amp;quot;s&amp;quot;:0,&amp;quot;n&amp;quot;:&amp;quot;a&amp;quot;,&amp;quot;v&amp;quot;:&amp;quot;left&amp;quot;},{&amp;quot;s&amp;quot;:0,&amp;quot;n&amp;quot;:&amp;quot;s&amp;quot;,&amp;quot;v&amp;quot;:53.333333333333336,&amp;quot;e&amp;quot;:27}]}&quot; data-lucid-type=&quot;application/vnd.lucid.text&quot;&gt;&lt;font style=&quot;font-size: 18px;&quot; face=&quot;phetsarath ot&quot;&gt;ສະແດງຂໍ້ມູນຍົກເລິກການຮ້ອງຂໍ&lt;/font&gt;&lt;/span&gt;" style="strokeWidth=2;html=1;shape=mxgraph.flowchart.display;whiteSpace=wrap;fontSize=18;fontStyle=1" vertex="1" parent="WIyWlLk6GJQsqaUBKTNV-1">
          <mxGeometry x="4980" y="570" width="280" height="95" as="geometry" />
        </mxCell>
        <UserObject label="&lt;span data-lucid-content=&quot;{&amp;quot;t&amp;quot;:&amp;quot;ການຮ້ບຮ້ອງຂໍ ແລະ ຮັບການຮ້ອງຂໍບໍລິການ&amp;quot;,&amp;quot;m&amp;quot;:[{&amp;quot;s&amp;quot;:0,&amp;quot;n&amp;quot;:&amp;quot;p&amp;quot;,&amp;quot;v&amp;quot;:0.8916666666666667},{&amp;quot;s&amp;quot;:0,&amp;quot;n&amp;quot;:&amp;quot;s&amp;quot;,&amp;quot;v&amp;quot;:21.333333333333336,&amp;quot;e&amp;quot;:36}]}&quot; data-lucid-type=&quot;application/vnd.lucid.text&quot;&gt;&lt;font face=&quot;phetsarath ot&quot; style=&quot;font-size: 24px;&quot;&gt;&lt;b&gt;ການຮ້ບຮ້ອງຂໍ ແລະ ຮັບການຮ້ອງຂໍບໍລິການ&lt;/b&gt;&lt;/font&gt;&lt;/span&gt;&lt;font style=&quot;font-size: 24px;&quot; face=&quot;phetsarath ot&quot;&gt;&lt;b&gt;&lt;br&gt;&lt;/b&gt;&lt;/font&gt;" link="&#xa;&lt;span data-lucid-content=&quot;{&amp;quot;t&amp;quot;:&amp;quot;ລົງທະບຽນ&amp;quot;,&amp;quot;m&amp;quot;:[{&amp;quot;s&amp;quot;:0,&amp;quot;n&amp;quot;:&amp;quot;p&amp;quot;,&amp;quot;v&amp;quot;:0.8916666666666667},{&amp;quot;s&amp;quot;:0,&amp;quot;n&amp;quot;:&amp;quot;s&amp;quot;,&amp;quot;v&amp;quot;:21.333333333333336,&amp;quot;e&amp;quot;:8}]}&quot; data-lucid-type=&quot;application/vnd.lucid.text&quot;&gt;&lt;span style=&quot;font-size:16.000000000000004px;&quot;&gt;ລົງທະບຽນ&lt;/span&gt;&lt;/span&gt;&#xa;&#xa;" id="8Fg7yttchRCWMxdPPxp7-230">
          <mxCell style="rounded=0;whiteSpace=wrap;html=1;fillColor=#dae8fc;strokeColor=#6c8ebf;" vertex="1" parent="WIyWlLk6GJQsqaUBKTNV-1">
            <mxGeometry x="5190" y="-90" width="329" height="60" as="geometry" />
          </mxCell>
        </UserObject>
        <mxCell id="8Fg7yttchRCWMxdPPxp7-231" style="edgeStyle=none;curved=1;rounded=0;orthogonalLoop=1;jettySize=auto;html=1;entryX=0.5;entryY=0;entryDx=0;entryDy=0;entryPerimeter=0;fontSize=18;startSize=8;endSize=8;strokeWidth=2;exitX=0.5;exitY=1;exitDx=0;exitDy=0;exitPerimeter=0;fontStyle=1" edge="1" parent="WIyWlLk6GJQsqaUBKTNV-1" source="8Fg7yttchRCWMxdPPxp7-236" target="8Fg7yttchRCWMxdPPxp7-219">
          <mxGeometry relative="1" as="geometry">
            <mxPoint x="5344" y="310" as="sourcePoint" />
          </mxGeometry>
        </mxCell>
        <mxCell id="8Fg7yttchRCWMxdPPxp7-236" value="&lt;span style=&quot;font-size: 18px;&quot; data-lucid-content=&quot;{&amp;quot;t&amp;quot;:&amp;quot;ສະແດງຂໍ້ມູນຮ້ອງຂໍ ແລະ ຕຳແໝ່ງຂອງລູກຄ້າ&amp;quot;,&amp;quot;m&amp;quot;:[{&amp;quot;s&amp;quot;:0,&amp;quot;n&amp;quot;:&amp;quot;a&amp;quot;,&amp;quot;v&amp;quot;:&amp;quot;left&amp;quot;},{&amp;quot;s&amp;quot;:0,&amp;quot;n&amp;quot;:&amp;quot;s&amp;quot;,&amp;quot;v&amp;quot;:53.333333333333336,&amp;quot;e&amp;quot;:37}]}&quot; data-lucid-type=&quot;application/vnd.lucid.text&quot;&gt;&lt;font face=&quot;phetsarath ot&quot; style=&quot;font-size: 18px;&quot;&gt;&lt;span style=&quot;font-size: 18px;&quot;&gt;ສະແດງຂໍ້ມູນຮ້ອງຂໍ ແລະ ຕຳແໝ່ງຂອງລູກຄ້າ&lt;/span&gt;&lt;/font&gt;&lt;/span&gt;" style="strokeWidth=2;html=1;shape=mxgraph.flowchart.display;whiteSpace=wrap;fontSize=18;fontStyle=1" vertex="1" parent="WIyWlLk6GJQsqaUBKTNV-1">
          <mxGeometry x="5179" y="197.5" width="330" height="105" as="geometry" />
        </mxCell>
        <mxCell id="8Fg7yttchRCWMxdPPxp7-239" style="edgeStyle=none;curved=1;rounded=0;orthogonalLoop=1;jettySize=auto;html=1;entryX=0.5;entryY=0;entryDx=0;entryDy=0;entryPerimeter=0;fontSize=18;startSize=8;endSize=8;strokeWidth=2;fontStyle=1" edge="1" parent="WIyWlLk6GJQsqaUBKTNV-1" source="8Fg7yttchRCWMxdPPxp7-218" target="8Fg7yttchRCWMxdPPxp7-236">
          <mxGeometry relative="1" as="geometry" />
        </mxCell>
        <mxCell id="8Fg7yttchRCWMxdPPxp7-241" value="&lt;span style=&quot;font-size: 18px;&quot; data-lucid-content=&quot;{&amp;quot;t&amp;quot;:&amp;quot;ສະແດງຂໍ້ມູນສຳເລັດການຮັບຮ້ອງຂໍ&amp;quot;,&amp;quot;m&amp;quot;:[{&amp;quot;s&amp;quot;:0,&amp;quot;n&amp;quot;:&amp;quot;a&amp;quot;,&amp;quot;v&amp;quot;:&amp;quot;left&amp;quot;},{&amp;quot;s&amp;quot;:0,&amp;quot;n&amp;quot;:&amp;quot;s&amp;quot;,&amp;quot;v&amp;quot;:53.333333333333336,&amp;quot;e&amp;quot;:29}]}&quot; data-lucid-type=&quot;application/vnd.lucid.text&quot;&gt;&lt;font style=&quot;font-size: 18px;&quot; face=&quot;phetsarath ot&quot;&gt;ສະແດງຂໍ້ມູນສຳເລັດການຮັບຮ້ອງຂໍ&lt;/font&gt;&lt;/span&gt;" style="strokeWidth=2;html=1;shape=mxgraph.flowchart.display;whiteSpace=wrap;fontSize=18;fontStyle=1" vertex="1" parent="WIyWlLk6GJQsqaUBKTNV-1">
          <mxGeometry x="5410" y="562.5" width="280" height="95" as="geometry" />
        </mxCell>
        <mxCell id="8Fg7yttchRCWMxdPPxp7-243" style="edgeStyle=orthogonalEdgeStyle;rounded=0;orthogonalLoop=1;jettySize=auto;html=1;exitX=0;exitY=0.5;exitDx=0;exitDy=0;exitPerimeter=0;entryX=0.575;entryY=0.025;entryDx=0;entryDy=0;entryPerimeter=0;fontSize=18;startSize=8;endSize=8;strokeWidth=2;fontStyle=1" edge="1" parent="WIyWlLk6GJQsqaUBKTNV-1" source="8Fg7yttchRCWMxdPPxp7-219" target="8Fg7yttchRCWMxdPPxp7-228">
          <mxGeometry relative="1" as="geometry" />
        </mxCell>
        <mxCell id="8Fg7yttchRCWMxdPPxp7-244" style="edgeStyle=orthogonalEdgeStyle;rounded=0;orthogonalLoop=1;jettySize=auto;html=1;exitX=1;exitY=0.5;exitDx=0;exitDy=0;exitPerimeter=0;entryX=0.5;entryY=0;entryDx=0;entryDy=0;entryPerimeter=0;fontSize=18;startSize=8;endSize=8;strokeWidth=2;fontStyle=1" edge="1" parent="WIyWlLk6GJQsqaUBKTNV-1" source="8Fg7yttchRCWMxdPPxp7-219" target="8Fg7yttchRCWMxdPPxp7-241">
          <mxGeometry relative="1" as="geometry" />
        </mxCell>
        <mxCell id="8Fg7yttchRCWMxdPPxp7-245" style="edgeStyle=orthogonalEdgeStyle;rounded=0;orthogonalLoop=1;jettySize=auto;html=1;entryX=0;entryY=0.5;entryDx=0;entryDy=0;entryPerimeter=0;fontSize=18;startSize=8;endSize=8;strokeWidth=2;fontStyle=1" edge="1" parent="WIyWlLk6GJQsqaUBKTNV-1" source="8Fg7yttchRCWMxdPPxp7-228" target="8Fg7yttchRCWMxdPPxp7-227">
          <mxGeometry relative="1" as="geometry">
            <Array as="points">
              <mxPoint x="5140" y="763" />
            </Array>
          </mxGeometry>
        </mxCell>
        <mxCell id="8Fg7yttchRCWMxdPPxp7-246" style="edgeStyle=orthogonalEdgeStyle;rounded=0;orthogonalLoop=1;jettySize=auto;html=1;exitX=0.5;exitY=1;exitDx=0;exitDy=0;exitPerimeter=0;entryX=1;entryY=0.5;entryDx=0;entryDy=0;entryPerimeter=0;fontSize=18;startSize=8;endSize=8;strokeWidth=2;fontStyle=1" edge="1" parent="WIyWlLk6GJQsqaUBKTNV-1" source="8Fg7yttchRCWMxdPPxp7-241" target="8Fg7yttchRCWMxdPPxp7-227">
          <mxGeometry relative="1" as="geometry" />
        </mxCell>
        <mxCell id="8Fg7yttchRCWMxdPPxp7-247" style="edgeStyle=none;curved=1;rounded=0;orthogonalLoop=1;jettySize=auto;html=1;entryX=0.5;entryY=0;entryDx=0;entryDy=0;entryPerimeter=0;fontSize=18;startSize=8;endSize=8;strokeWidth=2;fontStyle=1" edge="1" parent="WIyWlLk6GJQsqaUBKTNV-1" source="8Fg7yttchRCWMxdPPxp7-227" target="8Fg7yttchRCWMxdPPxp7-221">
          <mxGeometry relative="1" as="geometry" />
        </mxCell>
      </root>
    </mxGraphModel>
  </diagram>
</mxfile>
